<?xml version="1.0" encoding="UTF-8"?>
<svg xmlns="http://www.w3.org/2000/svg" width="507" height="120" viewBox="0 0 507 120" fill="none">
  <g id="Elements/Brand/Logo/Full">
    <path id="Combined Shape" fill-rule="evenodd" clip-rule="evenodd" d="M22.6139 24.3309C29.3289 24.3309 34.7794 18.8805 34.7794 12.1655C34.7794 5.45042 29.3289 0 22.6139 0C15.881 0 10.4306 5.45042 10.4306 12.1655C10.4306 18.8805 15.881 24.3309 22.6139 24.3309ZM143.998 44.3888H151.799V0.625195H143.998V44.3888ZM163.365 13.7525H170.543V18.1342H170.863C171.362 17.208 171.986 16.3708 172.734 15.6227C173.411 14.9993 174.265 14.4294 175.334 13.9128C176.403 13.3785 177.721 13.1291 179.306 13.1291C180.927 13.1291 182.316 13.4141 183.492 13.9662C184.65 14.5362 185.594 15.1418 186.306 15.8187C187.126 16.5668 187.82 17.4396 188.372 18.437H188.675C189.334 17.4396 190.154 16.5668 191.115 15.8187C191.953 15.1418 192.986 14.5362 194.197 13.9662C195.444 13.4141 196.922 13.1291 198.668 13.1291C200.217 13.1291 201.642 13.4141 202.96 14.0019C204.261 14.5897 205.401 15.4268 206.327 16.4955C207.271 17.582 208.001 18.9001 208.518 20.4319C209.034 21.9816 209.301 23.7093 209.301 25.633V44.371H202.105V26.5592C202.105 24.5287 201.624 22.979 200.645 21.9103C199.665 20.8416 198.383 20.3073 196.797 20.3073C194.749 20.3073 193.11 20.9663 191.828 22.2487C190.563 23.549 189.922 25.2946 189.922 27.5032V44.371H182.744V26.1852C182.744 24.3149 182.245 22.8722 181.266 21.8391C180.286 20.8238 179.003 20.3073 177.418 20.3073C175.388 20.3073 173.731 20.9663 172.449 22.2487C171.184 23.549 170.543 25.2946 170.543 27.5032V44.371H163.365V13.7525ZM226.477 13.7525H219.299V44.371H226.477V27.5032C226.477 25.2946 227.118 23.549 228.383 22.2487C229.666 20.9663 231.322 20.3073 233.353 20.3073C234.938 20.3073 236.22 20.8238 237.2 21.8391C238.18 22.8722 238.678 24.3149 238.678 26.1852V44.371H245.857V27.5032C245.857 25.2946 246.498 23.549 247.762 22.2487C249.045 20.9663 250.684 20.3073 252.732 20.3073C254.317 20.3073 255.6 20.8416 256.579 21.9103C257.559 22.979 258.04 24.5287 258.04 26.5592V44.371H265.236V25.633C265.236 23.7093 264.969 21.9816 264.452 20.4319C263.936 18.9001 263.205 17.582 262.261 16.4955C261.335 15.4268 260.195 14.5897 258.895 14.0019C257.577 13.4141 256.152 13.1291 254.602 13.1291C252.857 13.1291 251.378 13.4141 250.131 13.9662C248.92 14.5362 247.887 15.1418 247.05 15.8187C246.088 16.5668 245.269 17.4396 244.61 18.437H244.307C243.755 17.4396 243.06 16.5668 242.241 15.8187C241.528 15.1418 240.584 14.5362 239.426 13.9662C238.251 13.4141 236.862 13.1291 235.241 13.1291C233.655 13.1291 232.337 13.3785 231.269 13.9128C230.2 14.4294 229.345 14.9993 228.668 15.6227C227.92 16.3708 227.297 17.208 226.798 18.1342H226.477V13.7525ZM288.984 38.1262C290.231 38.1262 291.389 37.9125 292.458 37.4672C293.508 37.0397 294.453 36.4163 295.236 35.5969C296.02 34.7776 296.643 33.8157 297.071 32.7114C297.516 31.6249 297.73 30.3959 297.73 29.06C297.73 27.7241 297.516 26.5129 297.071 25.4086C296.643 24.3042 296.02 23.3424 295.236 22.5409C294.453 21.7215 293.508 21.0981 292.458 20.6528C291.389 20.2253 290.231 19.9938 288.984 19.9938C287.737 19.9938 286.58 20.2253 285.511 20.6528C284.46 21.0981 283.516 21.7215 282.732 22.5409C281.949 23.3424 281.325 24.3042 280.898 25.4086C280.452 26.5129 280.239 27.7241 280.239 29.06C280.239 30.3959 280.452 31.6249 280.898 32.7114C281.325 33.8157 281.949 34.7776 282.732 35.5969C283.516 36.4163 284.46 37.0397 285.511 37.4672C286.58 37.9125 287.737 38.1262 288.984 38.1262ZM288.984 45.0016C286.776 45.0016 284.709 44.5919 282.804 43.7547C280.88 42.9176 279.188 41.7776 277.727 40.317C276.284 38.8565 275.127 37.1644 274.29 35.2585C273.47 33.3348 273.043 31.2686 273.043 29.06C273.043 26.9048 273.47 24.8386 274.29 22.9149C275.127 20.9734 276.284 19.2813 277.727 17.8207C279.188 16.3602 280.88 15.2024 282.804 14.383C284.709 13.5459 286.776 13.1184 288.984 13.1184C291.157 13.1184 293.206 13.5459 295.147 14.383C297.071 15.2024 298.781 16.3602 300.241 17.8207C301.684 19.2813 302.842 20.9734 303.679 22.9149C304.498 24.8386 304.926 26.9048 304.926 29.06C304.926 31.2686 304.498 33.3348 303.679 35.2585C302.842 37.1644 301.684 38.8565 300.241 40.317C298.781 41.7776 297.071 42.9176 295.147 43.7547C293.206 44.5919 291.157 45.0016 288.984 45.0016ZM149.917 63.1251H142.739V106.871H149.917V99.3721L154.619 94.0642L163.365 106.871H171.487L159.304 89.0591L170.863 76.2524H162.118L149.917 89.6825V63.1251ZM189.924 100.624C191.171 100.624 192.328 100.411 193.397 99.9653C194.448 99.5378 195.392 98.9144 196.176 98.095C196.96 97.2757 197.583 96.3138 198.01 95.2095C198.456 94.123 198.669 92.894 198.669 91.5581C198.669 90.2222 198.456 89.011 198.01 87.9067C197.583 86.8023 196.96 85.8405 196.176 85.039C195.392 84.2196 194.448 83.5962 193.397 83.1509C192.328 82.7234 191.171 82.4919 189.924 82.4919C188.677 82.4919 187.519 82.7234 186.451 83.1509C185.4 83.5962 184.456 84.2196 183.672 85.039C182.888 85.8405 182.265 86.8023 181.837 87.9067C181.392 89.011 181.178 90.2222 181.178 91.5581C181.178 92.894 181.392 94.123 181.837 95.2095C182.265 96.3138 182.888 97.2757 183.672 98.095C184.456 98.9144 185.4 99.5378 186.451 99.9653C187.519 100.411 188.677 100.624 189.924 100.624ZM189.924 107.5C187.715 107.5 185.649 107.09 183.743 106.253C181.819 105.416 180.127 104.276 178.667 102.815C177.224 101.355 176.066 99.6625 175.229 97.7566C174.41 95.8329 173.982 93.7668 173.982 91.5581C173.982 89.4029 174.41 87.3367 175.229 85.413C176.066 83.4715 177.224 81.7794 178.667 80.3188C180.127 78.8583 181.819 77.7005 183.743 76.8812C185.649 76.044 187.715 75.6165 189.924 75.6165C192.097 75.6165 194.145 76.044 196.087 76.8812C198.01 77.7005 199.72 78.8583 201.181 80.3188C202.624 81.7794 203.781 83.4715 204.619 85.413C205.438 87.3367 205.865 89.4029 205.865 91.5581C205.865 93.7668 205.438 95.8329 204.619 97.7566C203.781 99.6625 202.624 101.355 201.181 102.815C199.72 104.276 198.01 105.416 196.087 106.253C194.145 107.09 192.097 107.5 189.924 107.5ZM220.851 76.2506H213.672V106.869H220.851V90.6248C220.851 88.2558 221.563 86.3499 222.952 84.9428C224.342 83.5178 226.158 82.8054 228.349 82.8054C230.237 82.8054 231.751 83.411 232.891 84.5865C234.031 85.7799 234.601 87.5077 234.601 89.752V106.869H241.797V88.7545C241.797 86.7062 241.512 84.8715 240.924 83.2507C240.337 81.6298 239.517 80.2583 238.484 79.1183C237.433 77.9962 236.204 77.1412 234.797 76.5356C233.372 75.93 231.858 75.6272 230.237 75.6272C228.741 75.6272 227.423 75.8766 226.301 76.4109C225.179 76.9275 224.235 77.4974 223.487 78.1209C222.614 78.8689 221.83 79.7061 221.171 80.6323H220.851V76.2506ZM276.482 71.8742C275.235 71.8742 274.184 71.4646 273.365 70.6274C272.528 69.7903 272.1 68.7572 272.1 67.4925C272.1 66.2457 272.528 65.2126 273.365 64.3755C274.184 63.5383 275.235 63.1286 276.482 63.1286C277.729 63.1286 278.78 63.5383 279.599 64.3755C280.436 65.2126 280.864 66.2457 280.864 67.4925C280.864 68.7572 280.436 69.7903 279.599 70.6274C278.78 71.4646 277.729 71.8742 276.482 71.8742ZM253.665 83.1313H248.981V76.256H253.665V72.658C253.665 69.3628 254.538 66.8335 256.266 65.1058C257.993 63.3602 260.362 62.5052 263.355 62.5052C264.156 62.5052 264.869 62.5587 265.51 62.6477C266.151 62.7546 266.703 62.8793 267.167 63.004C267.719 63.1643 268.217 63.3068 268.663 63.4314V70.3068C268.477 70.2253 268.267 70.1362 268.04 70.0395L267.665 69.8793C267.345 69.7546 266.953 69.63 266.543 69.5231C266.133 69.434 265.688 69.3806 265.225 69.3806C263.978 69.3806 262.945 69.7725 262.108 70.5562C261.271 71.3399 260.861 72.373 260.861 73.6732V76.256H279.92V106.874H272.724V83.1313H260.861V106.874H253.665V83.1313ZM306.103 98.7505C305.141 99.1602 304.126 99.3739 303.04 99.3739C301.882 99.3739 300.795 99.1602 299.798 98.7505C298.8 98.3408 297.945 97.753 297.233 97.0227C296.52 96.3103 295.95 95.4197 295.541 94.3688C295.131 93.3357 294.917 92.1957 294.917 90.9311C294.917 89.6843 295.131 88.5443 295.541 87.4934C295.95 86.4603 296.52 85.5698 297.233 84.8395C297.945 84.1092 298.8 83.5392 299.798 83.1295C300.795 82.7021 301.882 82.5061 303.04 82.5061C304.126 82.5061 305.141 82.7021 306.103 83.1295C307.065 83.5392 307.902 84.1092 308.597 84.8395C309.309 85.5698 309.862 86.4603 310.253 87.4934C310.645 88.5443 310.859 89.6843 310.859 90.9311C310.859 92.1957 310.645 93.3357 310.253 94.3688C309.862 95.4197 309.309 96.3103 308.597 97.0227C307.902 97.753 307.065 98.3408 306.103 98.7505ZM296.325 119.038C297.963 119.679 299.887 120 302.096 120C304.358 120 306.459 119.59 308.419 118.771C310.378 117.969 312.052 116.847 313.477 115.44C314.902 114.015 316.007 112.323 316.826 110.382C317.627 108.422 318.037 106.321 318.037 104.058V76.2542H310.859V80.6181H310.538C309.915 79.7097 309.167 78.8725 308.294 78.1244C307.546 77.501 306.566 76.931 305.391 76.4145C304.197 75.8801 302.79 75.6308 301.169 75.6308C299.459 75.6308 297.785 76.0048 296.164 76.7885C294.543 77.5544 293.101 78.6231 291.854 79.9947C290.607 81.384 289.609 83.0049 288.844 84.8751C288.113 86.7453 287.721 88.7759 287.721 90.9311C287.721 93.1398 288.113 95.1703 288.844 97.0227C289.609 98.893 290.607 100.496 291.854 101.885C293.101 103.257 294.543 104.326 296.164 105.092C297.785 105.857 299.459 106.249 301.169 106.249C302.79 106.249 304.197 105.982 305.391 105.466C306.566 104.949 307.546 104.379 308.294 103.756C309.167 103.008 309.915 102.17 310.538 101.244H310.859V104.058C310.859 106.89 310.057 109.117 308.472 110.72C306.887 112.323 304.767 113.125 302.096 113.125C300.777 113.125 299.584 112.911 298.533 112.501C297.5 112.092 296.627 111.628 295.915 111.13C295.078 110.542 294.33 109.847 293.671 109.064L288.986 113.748C289.859 114.924 290.945 115.957 292.228 116.883C293.314 117.667 294.668 118.379 296.325 119.038ZM339.602 107.5C337.981 107.5 336.449 107.197 335.042 106.591C333.617 105.986 332.388 105.131 331.355 103.991C330.304 102.869 329.503 101.497 328.915 99.8762C328.327 98.2553 328.042 96.4207 328.042 94.3724V76.2577H335.22V93.3749C335.22 95.6192 335.808 97.3469 336.948 98.5225C338.088 99.7159 339.602 100.321 341.472 100.321C343.681 100.321 345.48 99.609 346.887 98.1841C348.276 96.777 348.971 94.8711 348.971 92.5021V76.2577H356.167V106.876H348.971V102.495H348.668C347.991 103.421 347.225 104.258 346.353 105.006C345.604 105.629 344.66 106.199 343.503 106.716C342.363 107.232 341.062 107.5 339.602 107.5ZM373.346 76.2506H366.168V106.869H373.346V91.8716C373.346 90.5357 373.542 89.3245 373.952 88.2558C374.344 87.1693 374.896 86.243 375.608 85.4949C376.303 84.7469 377.14 84.1591 378.102 83.7494C379.064 83.3397 380.079 83.126 381.166 83.126C381.54 83.126 381.878 83.1438 382.199 83.1794C382.382 83.2117 382.552 83.2375 382.705 83.2608C382.805 83.2759 382.898 83.29 382.983 83.3041C383.159 83.3418 383.326 83.3706 383.478 83.3969L383.56 83.4112L383.659 83.4288V75.6272H382.413C381.005 75.6272 379.741 75.8766 378.672 76.4109C377.586 76.9275 376.659 77.4974 375.911 78.1209C375.039 78.8689 374.29 79.7061 373.667 80.6323H373.346V76.2506ZM400.228 101.561C401.225 101.561 402.187 101.365 403.096 100.973C404.022 100.564 404.823 100.012 405.518 99.3169C406.195 98.6044 406.729 97.7673 407.139 96.8054C407.531 95.8614 407.727 94.8283 407.727 93.7418V92.8156L400.531 94.0624C398.661 94.4009 397.36 94.864 396.63 95.4696C395.9 96.0752 395.543 96.8589 395.543 97.8029C395.543 98.7648 395.971 99.6375 396.826 100.403C397.681 101.169 398.821 101.561 400.228 101.561ZM398.358 107.493C396.862 107.493 395.49 107.261 394.261 106.78C393.032 106.299 391.981 105.658 391.108 104.874C390.236 104.09 389.559 103.146 389.078 102.096C388.597 101.027 388.348 99.9225 388.348 98.7469C388.348 96.2533 389.202 94.1159 390.877 92.3703C392.569 90.6248 394.742 89.5204 397.414 89.0573L407.727 87.1871C407.727 86.6527 407.584 86.1005 407.281 85.5306C406.996 84.9606 406.587 84.4619 406.035 84.0344C405.5 83.5891 404.877 83.2328 404.164 82.93C403.452 82.6451 402.668 82.5026 401.795 82.5026C400.62 82.5026 399.587 82.6985 398.696 83.0903C397.806 83.4822 397.022 83.9097 396.345 84.3728C395.597 84.925 394.92 85.5484 394.297 86.243L389.915 81.8791C390.823 80.7036 391.892 79.6705 393.103 78.7443C394.136 77.9605 395.401 77.2481 396.879 76.589C398.358 75.9478 400.103 75.6272 402.098 75.6272C403.986 75.6272 405.696 75.9478 407.264 76.589C408.813 77.2481 410.185 78.1209 411.325 79.2252C412.465 80.3295 413.355 81.612 413.979 83.0903C414.602 84.5687 414.923 86.154 414.923 87.8105V106.869H407.727V102.808H407.406C406.836 103.681 406.106 104.482 405.233 105.195C404.485 105.765 403.541 106.299 402.419 106.78C401.297 107.261 399.943 107.493 398.358 107.493ZM429.703 104.703C431.431 106.573 433.8 107.5 436.792 107.5C437.576 107.5 438.306 107.464 438.947 107.375C439.589 107.286 440.141 107.179 440.604 107.054C441.138 106.894 441.637 106.734 442.1 106.556V99.7515C441.726 99.9118 441.334 100.054 440.907 100.179C440.123 100.482 439.268 100.624 438.36 100.624C437.095 100.624 436.115 100.232 435.385 99.4309C434.655 98.6294 434.298 97.4004 434.298 95.7617V83.1331H441.174V76.2577H434.298V67.1915H427.726V73.0338C427.726 74.2094 427.476 75.0287 426.978 75.5096C426.479 76.0084 425.695 76.2577 424.609 76.2577H421.474V83.1331H427.102V96.5988C427.102 100.143 427.975 102.851 429.703 104.703ZM463.663 100.624C464.91 100.624 466.068 100.411 467.136 99.9653C468.187 99.5378 469.131 98.9144 469.915 98.095C470.699 97.2757 471.322 96.3138 471.75 95.2095C472.195 94.123 472.409 92.894 472.409 91.5581C472.409 90.2222 472.195 89.011 471.75 87.9067C471.322 86.8023 470.699 85.8405 469.915 85.039C469.131 84.2196 468.187 83.5962 467.136 83.1509C466.068 82.7234 464.91 82.4919 463.663 82.4919C462.416 82.4919 461.258 82.7234 460.19 83.1509C459.139 83.5962 458.195 84.2196 457.411 85.039C456.627 85.8405 456.004 86.8023 455.576 87.9067C455.131 89.011 454.917 90.2222 454.917 91.5581C454.917 92.894 455.131 94.123 455.576 95.2095C456.004 96.3138 456.627 97.2757 457.411 98.095C458.195 98.9144 459.139 99.5378 460.19 99.9653C461.258 100.411 462.416 100.624 463.663 100.624ZM463.663 107.5C461.454 107.5 459.388 107.09 457.482 106.253C455.559 105.416 453.867 104.276 452.406 102.815C450.963 101.355 449.805 99.6625 448.968 97.7566C448.149 95.8329 447.721 93.7668 447.721 91.5581C447.721 89.4029 448.149 87.3367 448.968 85.413C449.805 83.4715 450.963 81.7794 452.406 80.3188C453.867 78.8583 455.559 77.7005 457.482 76.8812C459.388 76.044 461.454 75.6165 463.663 75.6165C465.836 75.6165 467.884 76.044 469.826 76.8812C471.75 77.7005 473.46 78.8583 474.92 80.3188C476.363 81.7794 477.521 83.4715 478.358 85.413C479.177 87.3367 479.605 89.4029 479.605 91.5581C479.605 93.7668 479.177 95.8329 478.358 97.7566C477.521 99.6625 476.363 101.355 474.92 102.815C473.46 104.276 471.75 105.416 469.826 106.253C467.884 107.09 465.836 107.5 463.663 107.5ZM494.607 76.2506H487.412V106.869H494.607V91.8716C494.607 90.5357 494.803 89.3245 495.195 88.2558C495.587 87.1693 496.139 86.243 496.852 85.4949C497.546 84.7469 498.384 84.1591 499.345 83.7494C500.307 83.3397 501.323 83.126 502.409 83.126C502.783 83.126 503.122 83.1438 503.442 83.1794C503.694 83.2214 503.902 83.2524 504.083 83.281L504.226 83.3041C504.402 83.3418 504.569 83.3706 504.721 83.3969L504.722 83.397C504.785 83.4079 504.845 83.4183 504.903 83.4288V75.6272H503.656C502.249 75.6272 500.984 75.8766 499.915 76.4109C498.829 76.9275 497.903 77.4974 497.155 78.1209C496.282 78.8689 495.534 79.7061 494.91 80.6323H494.607V76.2506ZM31.7585 45.9135V45.8423H9.74306L0 56.9034H13.4479V106.581H31.7585V45.9135ZM108.481 58.1039C108.481 64.7477 103.084 70.1447 96.4403 70.1447C89.7787 70.1447 84.3995 64.7477 84.3995 58.1039C84.3995 51.4601 89.7787 46.0631 96.4403 46.0631C103.084 46.0631 108.481 51.4601 108.481 58.1039ZM66.2689 106.573H47.9583V65.7666L47.7802 65.5706L47.9583 65.4994V1.43029H66.2689V64.5732L107.022 106.734H83.2613L66.2689 86.9983V106.573Z" fill="black"></path>
  </g>
</svg>
