<svg width="22" height="17" viewBox="0 0 22 17" fill="none" xmlns="http://www.w3.org/2000/svg">
<path d="M11 0.5C5.91875 0.5 0.5 2.075 0.5 5V12.5C0.5 15.425 5.91875 17 11 17C16.0813 17 21.5 15.425 21.5 12.5V5C21.5 2.075 16.0813 0.5 11 0.5ZM11 2C16.5688 2 20 3.74375 20 5C20 5.76875 18.7438 6.65 16.775 7.23125L16.25 7.4V8.5625C15.5562 8.39375 14.8063 8.2625 14 8.16875C14 8.1125 14 8.05625 14 8C14 6.35 12.65 5 11 5C9.35 5 8 6.35 8 8C8 8.05625 8 8.1125 8 8.16875C7.19375 8.2625 6.44375 8.39375 5.75 8.5625V7.4L5.225 7.23125C3.25625 6.65 2 5.76875 2 5C2 3.74375 5.43125 2 11 2ZM20 7.4V10.0812C19.4 9.65 18.65 9.29375 17.75 8.975V8.4875C18.65 8.1875 19.4188 7.83125 20 7.4ZM9.5 8C9.5 7.175 10.175 6.5 11 6.5C11.825 6.5 12.5 7.175 12.5 8C12.5 8.825 11.825 9.5 11 9.5C10.175 9.5 9.5 8.825 9.5 8ZM4.25 8.99375C3.35 9.29375 2.6 9.66875 2 10.1V7.4C2.58125 7.8125 3.35 8.1875 4.25 8.4875V8.99375ZM2 12.5C2 11.8813 2.80625 11.1688 4.25 10.6063V14.4125C2.80625 13.8312 2 13.1 2 12.5ZM5.75 14.9V10.1188C6.55625 9.9125 7.475 9.74375 8.4875 9.63125C8.58125 9.78125 8.69375 9.93125 8.825 10.0625C7.4375 10.8312 6.5 12.3125 6.5 14H8C8 12.35 9.35 11 11 11C12.65 11 14 12.35 14 14H15.5C15.5 12.3125 14.5625 10.8312 13.175 10.0625C13.3062 9.93125 13.4188 9.78125 13.5125 9.63125C14.525 9.74375 15.4437 9.9125 16.25 10.1188V14.9C14.8438 15.275 13.0625 15.5 11 15.5C8.9375 15.5 7.15625 15.2563 5.75 14.9ZM17.75 14.4125V10.6063C19.1937 11.1875 20 11.9 20 12.5C20 13.1 19.1937 13.8312 17.75 14.4125Z" fill="black"/>
<path d="M7.25 5.75C7.66421 5.75 8 5.41421 8 5C8 4.58579 7.66421 4.25 7.25 4.25C6.83579 4.25 6.5 4.58579 6.5 5C6.5 5.41421 6.83579 5.75 7.25 5.75Z" fill="black"/>
</svg>
