<svg width="243" height="242" viewBox="0 0 243 242" fill="none" xmlns="http://www.w3.org/2000/svg">
<g filter="url(#filter0_b_305_79533)">
<path fill-rule="evenodd" clip-rule="evenodd" d="M72.6667 105.16V105H23.6796L2 129.767H31.9234V241H72.6667V105.16Z" fill="url(#paint0_linear_305_79533)" stroke="black"/>
<path fill-rule="evenodd" clip-rule="evenodd" d="M79.3332 28.3333C79.3332 43.4207 67.0962 55.6667 52.0198 55.6667C36.9035 55.6667 24.6665 43.4207 24.6665 28.3333C24.6665 13.246 36.9035 1 52.0198 1C67.0962 1 79.3332 13.246 79.3332 28.3333" fill="url(#paint1_linear_305_79533)"/>
<path d="M79.3332 28.3333C79.3332 43.4207 67.0962 55.6667 52.0198 55.6667C36.9035 55.6667 24.6665 43.4207 24.6665 28.3333C24.6665 13.246 36.9035 1 52.0198 1C67.0962 1 79.3332 13.246 79.3332 28.3333" stroke="black"/>
<path fill-rule="evenodd" clip-rule="evenodd" d="M242 132.333C242 147.415 230.047 159.667 215.333 159.667C200.58 159.667 188.667 147.415 188.667 132.333C188.667 117.251 200.58 105 215.333 105C230.047 105 242 117.251 242 132.333" fill="url(#paint2_linear_305_79533)"/>
<path d="M242 132.333C242 147.415 230.047 159.667 215.333 159.667C200.58 159.667 188.667 147.415 188.667 132.333C188.667 117.251 200.58 105 215.333 105C230.047 105 242 117.251 242 132.333" stroke="black"/>
<path fill-rule="evenodd" clip-rule="evenodd" d="M107.73 240.639H148.529V196.52L186.391 241H239.333L148.529 145.978V3.66675H107.73V148.066L107.333 148.227L107.73 148.668V240.639Z" fill="url(#paint3_linear_305_79533)" stroke="url(#paint4_linear_305_79533)"/>
</g>
<defs>
<filter id="filter0_b_305_79533" x="-1.10205" y="-1.5" width="245.602" height="245" filterUnits="userSpaceOnUse" color-interpolation-filters="sRGB">
<feFlood flood-opacity="0" result="BackgroundImageFix"/>
<feGaussianBlur in="BackgroundImageFix" stdDeviation="1"/>
<feComposite in2="SourceAlpha" operator="in" result="effect1_backgroundBlur_305_79533"/>
<feBlend mode="normal" in="SourceGraphic" in2="effect1_backgroundBlur_305_79533" result="shape"/>
</filter>
<linearGradient id="paint0_linear_305_79533" x1="37" y1="-1" x2="37.3333" y2="241" gradientUnits="userSpaceOnUse">
  <stop stop-color="#B8FFBB"/>
  <stop offset="0.510417" stop-color="#276A2A"/>
  <stop offset="0.994792" stop-color="#B8FFBB"/>
</linearGradient>
<linearGradient id="paint1_linear_305_79533" x1="51.9998" y1="1" x2="52" y2="238" gradientUnits="userSpaceOnUse">
  <stop stop-color="#B8FFBB"/>
  <stop offset="0.515625" stop-color="#276A2A"/>
  <stop offset="1" stop-color="#B8FFBB"/>
</linearGradient>
<linearGradient id="paint2_linear_305_79533" x1="215" y1="1" x2="215" y2="240" gradientUnits="userSpaceOnUse">
  <stop stop-color="#B8FFBB"/>
  <stop offset="0.520833" stop-color="#276A2A"/>
  <stop offset="1" stop-color="#B8FFBB"/>
</linearGradient>
<linearGradient id="paint3_linear_305_79533" x1="173.333" y1="3.66675" x2="173.333" y2="241" gradientUnits="userSpaceOnUse">
  <stop stop-color="#B8FFBB"/>
  <stop offset="0.507022" stop-color="#276A2A"/>
  <stop offset="0.984375" stop-color="#B8FFBB"/>
</linearGradient>
<!-- <linearGradient id="paint4_linear_305_79533" x1="173.333" y1="3.66675" x2="173.333" y2="241" gradientUnits="userSpaceOnUse">
  <stop stop-color="#A5DFC3"/>
  <stop offset="0.333333" stop-color="#32CD83"/>
  <stop offset="0.666667" stop-color="#5EC995"/>
  <stop offset="1" stop-color="#14854F"/>
</linearGradient> -->
</defs>
</svg>
