<svg width="36" height="36" viewBox="0 0 36 36" fill="none" xmlns="http://www.w3.org/2000/svg">
<path d="M33.9 36C29.6 36 25.4087 35.0413 21.326 33.124C17.242 31.208 13.6253 28.6747 10.476 25.524C7.32533 22.3747 4.792 18.758 2.876 14.674C0.958667 10.5913 0 6.4 0 2.1C0 1.5 0.2 1 0.6 0.6C1 0.2 1.5 0 2.1 0H10.2C10.6667 0 11.0833 0.15 11.45 0.45C11.8167 0.75 12.0333 1.13333 12.1 1.6L13.4 8.6C13.4667 9.06667 13.4587 9.49133 13.376 9.874C13.292 10.258 13.1 10.6 12.8 10.9L7.95 15.8C9.35 18.2 11.1087 20.45 13.226 22.55C15.342 24.65 17.6667 26.4667 20.2 28L24.9 23.3C25.2 23 25.592 22.7747 26.076 22.624C26.5587 22.4747 27.0333 22.4333 27.5 22.5L34.4 23.9C34.8667 24 35.25 24.2247 35.55 24.574C35.85 24.9247 36 25.3333 36 25.8V33.9C36 34.5 35.8 35 35.4 35.4C35 35.8 34.5 36 33.9 36ZM6.05 12L9.35 8.7L8.5 4H4.05C4.21667 5.36667 4.45 6.71667 4.75 8.05C5.05 9.38333 5.48333 10.7 6.05 12ZM23.95 29.9C25.25 30.4667 26.5753 30.9167 27.926 31.25C29.2753 31.5833 30.6333 31.8 32 31.9V27.5L27.3 26.55L23.95 29.9Z" fill="black"/>
</svg>
