<svg width="37" height="49" viewBox="0 0 37 49" fill="none" xmlns="http://www.w3.org/2000/svg">
<path d="M36.3979 18.1099C36.3979 26.4763 30.6477 36.2415 18.8979 47.4209C7.14817 36.2415 1.39795 26.4763 1.39795 18.1099C1.39795 8.44488 9.23297 0.609863 18.8979 0.609863C28.5629 0.609863 36.3979 8.44488 36.3979 18.1099Z" fill="#2E3B4E" stroke="white"/>
<mask id="mask0_54_79499" style="mask-type:alpha" maskUnits="userSpaceOnUse" x="7" y="6" width="22" height="24">
<path d="M22.4093 14.2861C22.6214 14.4981 22.8495 14.6848 23.0899 14.8459C22.8106 15.0248 22.5947 15.2936 22.4828 15.6116C22.4546 15.6105 22.4264 15.6099 22.3979 15.6099C21.2918 15.6099 20.3979 16.5037 20.3979 17.6099C20.3979 18.716 21.2918 19.6099 22.3979 19.6099C22.398 19.6099 22.3981 19.6099 22.3982 19.6099L22.3979 22.3536C22.0128 22.4899 21.6035 22.5752 21.1779 22.6013L20.8905 22.6099H19.1279C18.0218 22.6099 17.1279 23.5037 17.1279 24.6099C17.1279 25.1221 17.3296 25.5876 17.6334 25.9312L17.6342 25.932C17.8 26.1185 17.8979 26.3526 17.8979 26.6099C17.8979 27.1637 17.4518 27.6099 16.8979 27.6099C12.2041 27.6099 8.39795 23.8037 8.39795 19.1099C8.39795 14.416 12.2041 10.6099 16.8979 10.6099C18.3508 10.6099 19.7158 10.9313 20.9087 11.4959C21.1162 12.5187 21.6169 13.4937 22.4093 14.2861ZM27.2188 9.18484L27.2252 9.19233L27.2319 9.19955L27.3457 9.32245L27.3479 9.32477L27.4773 9.46284C28.2982 10.403 28.2982 11.8052 27.4773 12.7454L27.3589 12.8717L27.2326 12.9901C26.2494 13.8486 24.761 13.8094 23.8235 12.8719C22.4561 11.5044 22.4561 9.28957 23.8235 7.92213C24.5926 7.1531 25.7162 6.67492 26.833 6.61601C26.5251 7.37768 26.5209 8.36866 27.2188 9.18484ZM26.3979 16.6099V28.7812C26.3979 29.1225 26.2194 29.2542 26.1553 29.2745L26.1088 29.2782H24.6856L24.6423 29.275C24.5856 29.2585 24.434 29.1568 24.4028 28.8698L24.3979 28.7692V16.6099H26.3979ZM11.3979 15.6099C10.2918 15.6099 9.39795 16.5037 9.39795 17.6099C9.39795 18.716 10.2918 19.6099 11.3979 19.6099C12.5041 19.6099 13.3979 18.716 13.3979 17.6099C13.3979 16.5037 12.5041 15.6099 11.3979 15.6099ZM14.3979 11.6099C13.2918 11.6099 12.3979 12.5037 12.3979 13.6099C12.3979 14.716 13.2918 15.6099 14.3979 15.6099C15.5041 15.6099 16.3979 14.716 16.3979 13.6099C16.3979 12.5037 15.5041 11.6099 14.3979 11.6099ZM19.3979 11.6099C18.2918 11.6099 17.3979 12.5037 17.3979 13.6099C17.3979 14.716 18.2918 15.6099 19.3979 15.6099C20.5041 15.6099 21.3979 14.716 21.3979 13.6099C21.3979 12.5037 20.5041 11.6099 19.3979 11.6099Z" fill="white" stroke="black"/>
</mask>
<g mask="url(#mask0_54_79499)">
<path d="M30.8979 6.10986H6.89795V30.1099H30.8979V6.10986Z" fill="white"/>
</g>
</svg>
