<svg width="37px" height="49px" viewBox="0 0 37 49" version="1.1" xmlns="http://www.w3.org/2000/svg" xmlns:xlink="http://www.w3.org/1999/xlink">
    <defs>
        <polygon id="path-1" points="19 6.41 17.59 5 12 10.59 6.41 5 5 6.41 10.59 12 5 17.59 6.41 19 12 13.41 17.59 19 19 17.59 13.41 12"></polygon>
    </defs>
    <g id="Page-LG-1440" stroke="none" stroke-width="1" fill="none" fill-rule="evenodd">
        <g id="Desktop-1440---Flow-32---Kitchen-opt-1-individual" transform="translate(-443.000000, -159.000000)">
            <g id="Group" transform="translate(-209.000000, 0.000000)">
                <g id="Component-/-Room-/-Selectors" transform="translate(526.000000, 159.000000)">
                    <g id="Element-/-Selector/-Edit-Copy-3" transform="translate(126.219421, 0.317683)">
                        <path d="M18,48 C30,36.6666667 36,26.6666667 36,18 C36,8.0588745 27.9411255,0 18,0 C8.0588745,0 0,8.0588745 0,18 C0,26.6666667 6,36.6666667 18,48 Z" id="Oval" fill="#381C2E"></path>
                        <g id="Icon/Security/visibility" transform="translate(6.000000, 6.000000)">
                            <mask id="mask-2" fill="white">
                                <use xlink:href="#path-1"></use>
                            </mask>
                            <g id="Mask"></g>
                            <g id="Group" mask="url(#mask-2)" fill="#F0F0F0">
                                <g id="icon-color">
                                    <rect id="Swatch" x="0" y="0" width="24" height="24"></rect>
                                </g>
                            </g>
                        </g>
                    </g>
                </g>
            </g>
        </g>
    </g>
</svg>