<?xml version="1.0" encoding="UTF-8"?>
<svg width="20px" height="20px" viewBox="0 0 20 20" version="1.1" xmlns="http://www.w3.org/2000/svg" xmlns:xlink="http://www.w3.org/1999/xlink">
    <title>Icon/Content/Edit</title>
    <defs>
        <path d="M3.312,15.619 L8.38336277,20.68915 C8.33065247,20.7268422 8.27063627,20.7537092 8.20677036,20.7681556 L8.20677036,20.7681556 L2.59800977,21.9876678 C2.52753447,22.0042531 2.45462058,22.004741 2.38390143,21.9891312 C2.12053354,21.9318141 1.95397773,21.6715702 2.01128464,21.4083995 L2.01128464,21.4083995 L3.23058042,15.7986434 C3.2515523,15.7057166 3.29910484,15.6210824 3.36787312,15.554741 L3.312,15.619 Z M14.356,4.564 L19.436,9.643 L9.094,19.987 L4.015,14.906 L14.356,4.564 Z M17.0695875,2.00303363 C17.2156592,1.98669217 17.3612431,2.03693607 17.4658587,2.1401068 L17.4658587,2.1401068 L21.8571524,6.53217997 L21.8571524,6.53217997 C22.0484599,6.72571656 22.0467529,7.03449705 21.8553235,7.22400924 L21.8553235,7.22400924 L20.143,8.936 L15.063,3.857 L16.7801267,2.1401068 C16.8388358,2.08230193 16.9108505,2.04068607 16.9892779,2.01855193 Z" id="path-1"></path>
    </defs>
    <g id="Symbols" stroke="none" stroke-width="1" fill="none" fill-rule="evenodd">
        <g id="Elements-/-Konfigurator-/-Options-/-option-/-edit" transform="translate(-286.000000, -6.000000)">
            <g id="Icon-selected" transform="translate(284.000000, 4.000000)">
                <mask id="mask-2" fill="white">
                    <use xlink:href="#path-1"></use>
                </mask>
                <g id="Fill-1"></g>
                <g id="Group" mask="url(#mask-2)" fill="#9e9e9e">
                    <g id="color">
                        <rect id="Swatch" x="0" y="0" width="24" height="24"></rect>
                    </g>
                </g>
            </g>
        </g>
    </g>
</svg>