<svg height="24" viewBox="0 0 24 24" width="24" xmlns="http://www.w3.org/2000/svg" xmlns:xlink="http://www.w3.org/1999/xlink"><filter id="a"><feColorMatrix in="SourceGraphic" values="0 0 0 0 0.176471 0 0 0 0 0.235294 0 0 0 0 0.301961 0 0 0 1.000000 0"/></filter><g fill="none" fill-rule="evenodd" filter="url(#a)" transform="translate(-280 -8)"><path d="m296.033 12.492 3.475 3.475 2.078-2.079-3.475-3.474zm-11.175 11.175 3.475 3.474 9.761-9.76-3.475-3.475-9.76 9.761zm-1.298 1.531-1.157 4.398 4.4-1.157-3.243-3.24zm-2.56 6.802a.998.998 0 0 1 -.967-1.255l1.746-6.635a1 1 0 0 1 .26-.452l15.365-15.365a.999.999 0 0 1 1.414 0l4.89 4.888c.39.391.39 1.024 0 1.415l-15.366 15.365a1.003 1.003 0 0 1 -.453.26l-6.634 1.746c-.085.022-.17.033-.255.033z" fill="#2d3c4d"/></g></svg>