<svg width="24" height="24" viewBox="0 0 24 24" fill="none" xmlns="http://www.w3.org/2000/svg">
<path fill-rule="evenodd" clip-rule="evenodd" d="M12 2C9.28417 2 8.94359 2.01151 7.87702 2.06018C6.8126 2.10872 6.0857 2.27779 5.44959 2.52501C4.79204 2.78053 4.23432 3.12246 3.67839 3.67839C3.12242 4.23436 2.78053 4.79204 2.52497 5.44959C2.27775 6.0857 2.10872 6.8126 2.06014 7.87702C2.01147 8.94363 2 9.28413 2 12C2 14.7159 2.01147 15.0564 2.06014 16.123C2.10872 17.1874 2.27775 17.9143 2.52497 18.5504C2.78053 19.208 3.12242 19.7657 3.67839 20.3216C4.23432 20.8776 4.79204 21.2195 5.44959 21.4751C6.0857 21.7222 6.8126 21.8913 7.87702 21.9399C8.94359 21.9885 9.28417 22 12 22C14.7159 22 15.0564 21.9885 16.123 21.9399C17.1874 21.8913 17.9143 21.7222 18.5504 21.4751C19.208 21.2195 19.7657 20.8776 20.3216 20.3216C20.8776 19.7657 21.2195 19.208 21.475 18.5504C21.7222 17.9143 21.8913 17.1874 21.9398 16.123C21.9885 15.0564 22 14.7159 22 12C22 9.28417 21.9885 8.94363 21.9398 7.87702C21.8913 6.8126 21.7222 6.0857 21.475 5.44959C21.2195 4.79204 20.8776 4.23436 20.3216 3.67839C19.7657 3.12246 19.208 2.78053 18.5504 2.52501C17.9143 2.27779 17.1874 2.10872 16.123 2.06018C15.0564 2.01151 14.7159 2 12 2ZM12 3.8018C14.6701 3.8018 14.9864 3.81196 16.0408 3.86007C17.0158 3.90457 17.5453 4.06748 17.8977 4.20443C18.3645 4.38584 18.6976 4.60253 19.0475 4.95244C19.3975 5.3024 19.6142 5.63552 19.7956 6.10229C19.9325 6.45467 20.0954 6.98416 20.1399 7.95915C20.188 9.01361 20.1982 9.3299 20.1982 12C20.1982 14.6701 20.188 14.9864 20.1399 16.0408C20.0954 17.0159 19.9325 17.5454 19.7956 17.8977C19.6142 18.3645 19.3975 18.6976 19.0475 19.0475C18.6976 19.3975 18.3645 19.6142 17.8977 19.7956C17.5453 19.9325 17.0158 20.0955 16.0408 20.1399C14.9865 20.188 14.6703 20.1982 12 20.1982C9.32966 20.1982 9.01345 20.188 7.95915 20.1399C6.98416 20.0955 6.45463 19.9325 6.10225 19.7956C5.63552 19.6142 5.30236 19.3975 4.95244 19.0475C4.60253 18.6976 4.3858 18.3645 4.20439 17.8977C4.06748 17.5454 3.90457 17.0159 3.86007 16.0409C3.81196 14.9864 3.8018 14.6701 3.8018 12C3.8018 9.3299 3.81196 9.01361 3.86007 7.95915C3.90457 6.98416 4.06748 6.45467 4.20439 6.10229C4.3858 5.63552 4.60253 5.3024 4.95244 4.95248C5.30236 4.60253 5.63552 4.38584 6.10225 4.20443C6.45463 4.06748 6.98416 3.90457 7.95911 3.86007C9.01361 3.81196 9.32986 3.8018 12 3.8018ZM12 15.3334C10.1591 15.3334 8.66664 13.8409 8.66664 12C8.66664 10.1591 10.1591 8.66668 12 8.66668C13.8409 8.66668 15.3334 10.1591 15.3334 12C15.3334 13.8409 13.8409 15.3334 12 15.3334ZM12 6.86487C9.16394 6.86487 6.86484 9.16394 6.86484 12C6.86484 14.8361 9.16394 17.1352 12 17.1352C14.8361 17.1352 17.1351 14.8361 17.1351 12C17.1351 9.16394 14.8361 6.86487 12 6.86487ZM17.338 7.86197C18.0008 7.86197 18.538 7.32473 18.538 6.66198C18.538 5.99924 18.0008 5.462 17.338 5.462C16.6753 5.462 16.138 5.99924 16.138 6.66198C16.138 7.32473 16.6753 7.86197 17.338 7.86197Z" fill="#371A2E"/>
</svg>
