<svg width="24" height="24" viewBox="0 0 24 24" fill="none" xmlns="http://www.w3.org/2000/svg">
<path fill-rule="evenodd" clip-rule="evenodd" d="M5.18416 3C6.39089 3 7.36832 3.97743 7.36832 5.18416C7.36832 6.39089 6.39089 7.37027 5.18416 7.37027C3.97743 7.37027 3 6.39089 3 5.18416C3 3.97743 3.97743 3 5.18416 3ZM16.6259 8.68939C16.8726 8.69027 17.1243 8.70191 17.4634 8.7228C19.1105 8.8244 20.946 10.1118 21 13.1285C21.0376 15.227 21.0341 18.362 21.0322 20.159V20.1602C21.0318 20.4902 21.0315 20.7751 21.0315 21H17.2864C17.2864 20.3287 17.2896 19.3336 17.2932 18.2443L17.2932 18.2436V18.2434C17.2974 16.9265 17.3021 15.4722 17.3021 14.2864C17.3021 13.3004 16.8596 11.9745 15.2831 11.9745C13.547 11.9745 13.1246 13.5877 13.1246 14.2864C13.1246 15.4447 13.1191 16.9853 13.1142 18.3511C13.1103 19.4386 13.1068 20.4153 13.1068 21H9.38338C9.38338 19.8795 9.38937 17.3858 9.39531 14.9116C9.40116 12.4759 9.40697 10.0591 9.40697 8.99017C10.6051 8.99017 11.4139 8.98865 12.0236 8.98751H12.0236H12.0237C12.3924 8.98682 12.6883 8.98626 12.9535 8.98626C12.9535 9.36682 12.9518 9.67946 12.9502 9.96751V9.96756V9.96781C12.9488 10.2138 12.9476 10.4418 12.9476 10.6789C13.535 9.493 15.1389 8.75042 15.8257 8.71494C16.1389 8.69877 16.3791 8.68851 16.6259 8.68939ZM7.04787 20.9941H3.31456V9.03738H7.04787V20.9941Z" fill="white"/>
</svg>
