<svg width="25" height="25" viewBox="0 0 25 25" fill="none" xmlns="http://www.w3.org/2000/svg">
<g clip-path="url(#clip0_107_79526)">
<mask id="mask0_107_79526" style="mask-type:alpha" maskUnits="userSpaceOnUse" x="0" y="1" width="25" height="24">
<path d="M18.1678 8.58579C18.4968 8.58703 18.8325 8.60255 19.2845 8.6304C21.4807 8.76586 23.9281 10.4825 24 14.5047C24.0184 15.5327 24.0295 16.7473 24.0359 17.9915L24.0396 18.8236C24.0426 19.6566 24.0439 20.4872 24.0442 21.269L24.0442 22.399C24.0441 22.5192 24.044 22.6374 24.044 22.7534L24.043 23.7313C24.0429 23.832 24.0428 23.9299 24.0427 24.0246L24.042 24.7884C24.042 24.8628 24.042 24.9333 24.042 25H19.0485L19.049 24.4385C19.0507 23.2286 19.0572 21.5233 19.0624 19.7915L19.0649 18.9256C19.0668 18.2058 19.0683 17.495 19.0691 16.8272L19.0695 16.0485C19.0695 14.7339 18.4794 12.966 16.3775 12.966C14.0627 12.966 13.4994 15.117 13.4994 16.0485L13.499 16.716C13.4959 19.4867 13.4757 23.3766 13.4757 25H8.51117L8.51167 24.2174C8.51538 20.8475 8.53841 13.0542 8.54212 9.75044L8.54262 8.98689L10.2948 8.98601C10.379 8.98592 10.4613 8.98583 10.5416 8.98573L11.001 8.98512C11.074 8.98501 11.1452 8.9849 11.2147 8.98479L11.6126 8.98412C11.6758 8.984 11.7376 8.98389 11.7979 8.98378L12.1436 8.98314C12.1986 8.98303 12.2524 8.98293 12.3051 8.98284L12.7502 8.9821C12.7967 8.98204 12.8424 8.98198 12.8872 8.98193L13.2713 8.98169C13.2713 9.92256 13.2634 10.5521 13.2634 11.2386C14.0466 9.65734 16.1851 8.66722 17.1009 8.61991C17.5186 8.59836 17.8388 8.58468 18.1678 8.58579ZM5.39716 9.04984V24.9922H0.419415V9.04984H5.39716ZM2.91221 1C4.52119 1 5.82443 2.30324 5.82443 3.91221C5.82443 5.52119 4.52119 6.82703 2.91221 6.82703C1.30324 6.82703 0 5.52119 0 3.91221C0 2.30324 1.30324 1 2.91221 1Z" fill="white"/>
</mask>
<g mask="url(#mask0_107_79526)">
<path d="M28 -3H-4V29H28V-3Z" fill="white"/>
</g>
</g>
<defs>
<clipPath id="clip0_107_79526">
<rect width="25" height="25" fill="white"/>
</clipPath>
</defs>
</svg>
