<svg width="24" height="24" viewBox="0 0 330 402" fill="none" xmlns="http://www.w3.org/2000/svg">
<path d="M279.67 402H50.7999C37.5148 401.984 24.7784 396.7 15.3844 387.306C5.99035 377.912 0.70582 365.175 0.689941 351.89V50.11C0.70582 36.8249 5.99035 24.0884 15.3844 14.6944C24.7784 5.30041 37.5148 0.0158787 50.7999 0H200.9C204.875 0.000848813 208.688 1.57982 211.5 4.39L325.38 118.27C326.774 119.663 327.881 121.317 328.636 123.137C329.391 124.958 329.78 126.909 329.78 128.88V351.88C329.767 365.167 324.483 377.906 315.089 387.302C305.695 396.698 292.957 401.984 279.67 402V402ZM50.7999 30C45.4681 30.0053 40.3561 32.1257 36.5859 35.8959C32.8157 39.6661 30.6952 44.7781 30.6899 50.11V351.89C30.6952 357.222 32.8157 362.334 36.5859 366.104C40.3561 369.874 45.4681 371.995 50.7999 372H279.67C285.002 371.995 290.114 369.874 293.884 366.104C297.654 362.334 299.775 357.222 299.78 351.89V135.09L194.68 30H50.7999Z" fill="#FFFEFE"/>
<path d="M314.78 143.88H236C222.715 143.864 209.979 138.58 200.585 129.186C191.191 119.792 185.906 107.055 185.89 93.77V15C185.89 11.0218 187.47 7.20644 190.284 4.3934C193.097 1.58035 196.912 0 200.89 0C204.868 0 208.684 1.58035 211.497 4.3934C214.31 7.20644 215.89 11.0218 215.89 15V93.77C215.895 99.1019 218.016 104.214 221.786 107.984C225.556 111.754 230.668 113.875 236 113.88H314.77C318.748 113.88 322.564 115.46 325.377 118.273C328.19 121.086 329.77 124.902 329.77 128.88C329.77 132.858 328.19 136.674 325.377 139.487C322.564 142.3 318.748 143.88 314.77 143.88H314.78Z" fill="#FFFEFE"/>
<path d="M58 219.36C58 216.05 61 213.14 65.68 213.14H93C110.47 213.14 124.24 221.35 124.24 243.59V244.25C124.24 266.49 109.94 274.96 91.67 274.96H78.6V303.55C78.6 307.79 73.44 309.9 68.27 309.9C63.1 309.9 58 307.79 58 303.55V219.36ZM78.65 231.14V259.07H91.75C99.16 259.07 103.67 254.84 103.67 245.84V244.38C103.67 235.38 99.16 231.14 91.75 231.14H78.65Z" fill="#FFFEFE"/>
<path d="M165.69 213.14C183.96 213.14 198.26 221.61 198.26 244.38V278.67C198.26 301.43 183.96 309.9 165.69 309.9H142.26C136.84 309.9 133.26 306.99 133.26 303.68V219.36C133.26 216.05 136.84 213.14 142.26 213.14H165.69ZM153.91 231.14V291.9H165.69C173.11 291.9 177.61 287.67 177.61 278.67V244.38C177.61 235.38 173.11 231.14 165.69 231.14H153.91Z" fill="#FFFEFE"/>
<path d="M211.36 219.5C211.36 215.26 215.86 213.14 220.36 213.14H266.29C270.66 213.14 272.52 217.78 272.52 222.01C272.52 226.91 270.27 231.14 266.29 231.14H232V253.52H252C256 253.52 258.22 257.35 258.22 261.59C258.22 265.16 256.37 269.4 252 269.4H232V303.55C232 307.79 226.84 309.9 221.68 309.9C216.52 309.9 211.35 307.79 211.35 303.55L211.36 219.5Z" fill="#FFFEFE"/>
</svg>
