<svg width="24" height="30" viewBox="0 0 24 30" fill="none" xmlns="http://www.w3.org/2000/svg">
<path fill-rule="evenodd" clip-rule="evenodd" d="M21.3333 0.132812C22.8 0.132812 24 1.33281 24 2.79948V26.7995C24 28.2661 22.8 29.4661 21.3333 29.4661H2.66667C1.2 29.4661 0 28.2661 0 26.7995V2.79948C0 1.33281 1.2 0.132812 2.66667 0.132812H21.3333ZM16 2.79948H2.66667V26.7995H21.3333V8.13281L16 2.79948ZM8.92204 7.82513C9.10463 8.32299 9.7084 10.0917 9.96281 12.4654C10.9245 13.3722 11.9896 14.1403 13.1362 14.7539C14.7418 14.2645 16.3645 14.0454 18.0236 14.1124C20.5117 14.2061 20.3523 17.8579 18.0151 17.5633C16.8185 17.416 14.9999 17.0375 13.0291 16.0673C11.9178 16.4471 10.8295 16.9656 9.78631 17.6145C9.44912 19.2919 8.82222 20.7721 7.91779 22.0125C6.51914 23.9285 3.53073 21.9857 5.12049 20.0247C5.54289 19.5037 6.71756 18.1817 8.68224 16.8768C8.87213 15.6863 8.90987 14.3923 8.79423 13.0278C7.79728 12.032 6.89893 10.8781 6.12109 9.59991C4.80887 7.44047 8.08699 5.56465 8.92204 7.82513Z" fill="white"/>
</svg>
