<svg width="16" height="21" viewBox="0 0 16 21" fill="none" xmlns="http://www.w3.org/2000/svg">
<path fill-rule="evenodd" clip-rule="evenodd" d="M11 5C11 3.343 9.657 2 8 2C6.343 2 5 3.343 5 5C5 6.657 6.343 8 8 8C9.657 8 11 6.657 11 5ZM13 5C13 7.761 10.761 10 8 10C5.24 9.997 3.003 7.76 3 5C3 2.239 5.239 0 8 0C10.761 0 13 2.239 13 5ZM9 14.37L10 19H14V17C14 15.089 12.376 13.646 9.876 13.17L9 14.37ZM2 17V19H6L6.999 14.37L6.124 13.17C3.624 13.646 2 15.089 2 17ZM0 17C0 13.467 3.29 11 8 11C12.71 11 16 13.467 16 17V19V21H14H0V17Z" fill="#ffffff"/>
</svg>
