<svg width="20" height="20" viewBox="0 0 20 20" fill="none" xmlns="http://www.w3.org/2000/svg">
<path fill-rule="evenodd" clip-rule="evenodd" d="M9.8995 20C8.55675 18.7319 7.39431 17.5038 6.41216 16.3158L7.83282 14.8951C8.37218 15.5559 8.97618 16.2358 9.6456 16.9341L9.8995 17.196L10.1534 16.9341C13.5877 13.3515 15.3002 10.2549 15.3953 7.72202L15.3995 7.5C15.3995 7.44346 15.3986 7.38711 15.3969 7.33098L17.1507 5.57719C17.313 6.19084 17.3995 6.83532 17.3995 7.5C17.3995 11.1111 14.8995 15.2778 9.8995 20ZM9.8995 2C11.3347 2 12.6416 2.54974 13.6209 3.45015L15.0361 2.03501C13.694 0.773111 11.887 0 9.8995 0C5.75736 0 2.39949 3.35786 2.39949 7.5C2.39949 9.20742 2.9584 11.039 4.07621 12.9949L5.54821 11.5229C4.77845 10.0549 4.3995 8.71103 4.3995 7.5C4.3995 4.46243 6.86193 2 9.8995 2ZM18.3848 0.100505L0 18.4853L1.41421 19.8995L19.799 1.51472L18.3848 0.100505Z" fill="white"/>
</svg>
