<svg width="17" height="20" viewBox="0 0 17 20" fill="none" xmlns="http://www.w3.org/2000/svg">
<path fill-rule="evenodd" clip-rule="evenodd" d="M15 7.5C15 7.04068 14.9587 6.591 14.8796 6.15447L12.9739 8.05906C12.747 10.5279 11.0373 13.5089 7.7539 16.9341L7.5 17.196L7.2461 16.9341C3.71083 13.2462 2 10.0731 2 7.5C2 4.46243 4.46243 2 7.5 2C8.75399 2 9.90996 2.41966 10.8351 3.12621L12.2594 1.70335C10.9646 0.638998 9.30694 0 7.5 0C3.35786 0 0 3.35786 0 7.5C0 11.1111 2.5 15.2778 7.5 20C12.5 15.2778 15 11.1111 15 7.5ZM16.2069 2.70732L14.7931 1.29268L7.495 8.585L5.20767 6.29346L3.79233 7.70654L7.49445 11.4146L16.2069 2.70732Z" fill="white"/>
</svg>
