<svg width="24" height="24" viewBox="0 0 24 24" fill="none" xmlns="http://www.w3.org/2000/svg">
<path fill-rule="evenodd" clip-rule="evenodd" d="M1.44956 6.16507C1.46228 6.15671 1.47518 6.14863 1.48826 6.14085L11.4855 0.142507C11.8022 -0.0475024 12.1978 -0.0475024 12.5145 0.142507L22.5117 6.14085C22.5248 6.14863 22.5377 6.15671 22.5504 6.16507C22.6645 6.23993 22.7569 6.33255 22.8276 6.43615C22.9353 6.59323 23 6.78527 23 7V17C23 17.3513 22.8157 17.6768 22.5145 17.8575L12.5181 23.8553L12.51 23.8602C12.3457 23.9576 12.1706 24.0019 12 24.0015C11.8294 24.0019 11.6543 23.9576 11.49 23.8602L11.4819 23.8553L1.4855 17.8575C1.1843 17.6768 1 17.3513 1 17V7C1 6.78485 1.06497 6.59247 1.17307 6.43521C1.24365 6.33199 1.33581 6.23971 1.44956 6.16507ZM3 8.76619V16.434L11 21.234V13.5662L3 8.76619ZM13 13.5662V21.233L21 16.433V8.76619L13 13.5662ZM6.56353 8.57193L12 11.833L20.056 7L12 2.166L3.94333 6.9998L6.56353 8.57193Z" fill="#371A2E"/>
</svg>
