<svg width="24" height="24" viewBox="0 0 24 24" fill="none" xmlns="http://www.w3.org/2000/svg">
<path fill-rule="evenodd" clip-rule="evenodd" d="M20 6H22V4H20V6ZM16 2H18V0H16V2ZM12 2H14V0H12V2ZM8 22H10V20H8V22ZM8 2H10V0H8V2ZM4 2H6V0H4V2ZM22 0.977C22 0.437 21.563 0 21.023 0H20V2H22V0.977ZM0 0.977V2H2V0H0.976C0.437 0.001 0 0.438 0 0.977V0.977ZM0 6H2V4H0V6ZM0 18H2V16H0V18ZM0 14H2V12H0V14ZM20 10H22V8H20V10ZM0 10H2V8H0V10ZM0 20.989C0 21.547 0.453 22 1.011 22H2V20H0V20.989ZM4 22H6V20H4V22ZM17.628 17.071C17.374 17.173 17.172 17.375 17.071 17.629L16.044 20.2L13.672 13.676L20.2 16.044L17.628 17.071ZM23.342 15.061L12.342 11.061C11.823 10.872 11.249 11.14 11.06 11.659C10.98 11.879 10.98 12.121 11.06 12.342L15.06 23.342C15.202 23.732 15.569 23.993 15.984 24H16C16.409 24 16.777 23.751 16.929 23.371L18.769 18.771L23.369 16.93C23.882 16.725 24.131 16.143 23.926 15.63C23.82 15.366 23.607 15.159 23.34 15.062L23.342 15.061Z" fill="white"/>
</svg>
