<svg width="48" height="48" viewBox="0 0 48 48" fill="none" xmlns="http://www.w3.org/2000/svg">
<path fill-rule="evenodd" clip-rule="evenodd" d="M34 14H14V10H34V14ZM26 22H14V18H26V22ZM38 40H42C43.104 40 44 39.106 44 38V2C44 0.894 43.104 0 42 0H6C4.896 0 4 0.894 4 2V38C4 39.106 4.896 40 6 40H10V36H8V4H40V36H38V40ZM18.586 47.414C18.976 47.804 19.488 48 20 48C20.512 48 21.024 47.804 21.414 47.414L35.414 33.414L32.586 30.586L20 43.172L15.414 38.586L12.586 41.414L18.586 47.414Z" fill="#371A2E"/>
</svg>
