<svg width="21px" height="24px" viewBox="0 0 21 24" version="1.1" xmlns="http://www.w3.org/2000/svg" xmlns:xlink="http://www.w3.org/1999/xlink">
    <defs>
        <path d="M22.25,11.54 L19.01,8.79 L19.01,0 L5.25,0 L5.25,8.79 L2.01,11.54 L2,11.54 L2,24 L22.26,24 L22.26,11.54 L22.25,11.54 Z M4.065,22.565 L11.64,16.645 C11.94,16.48 12.32,16.48 12.62,16.645 L20.195,22.565 L4.065,22.565 L4.065,22.565 Z M20.825,21.05 L13.32,15.315 C12.96,15.11 12.545,15.005 12.13,15.005 C11.715,15.005 11.305,15.11 10.945,15.315 L3.435,21.05 L3.435,13.655 L6.835,16.515 L7.93,15.63 L6.78,14.645 L6.78,1.53 L17.48,1.53 L17.48,14.645 L16.33,15.63 L17.425,16.515 L20.825,13.655 L20.825,21.05 Z M10.59,8.58 L9.42,7.41 L8,8.82 L10.59,11.41 L16.59,5.41 L15.18,4 L10.59,8.58 Z" id="path-1"></path>
    </defs>
    <g id="Library" stroke="none" stroke-width="1" fill="none" fill-rule="evenodd">
        <g id="Component/Header/Large-v1.2-closed" transform="translate(-1370.000000, -18.000000)">
            <g id="Icons" transform="translate(1328.000000, 18.000000)">
                <g id="Group" transform="translate(40.000000, 0.000000)">
                    <mask id="mask-2" fill="white">
                        <use xlink:href="#path-1"></use>
                    </mask>
                    <use id="Shape" fill="#010202" fill-rule="nonzero" xlink:href="#path-1"></use>
                    <g mask="url(#mask-2)" fill="#000000" id="icon-color">
                        <g id="color">
                            <rect id="Swatch" x="0" y="0" width="24" height="24"></rect>
                        </g>
                    </g>
                </g>
            </g>
        </g>
    </g>
</svg>
