<svg width="25" height="24" viewBox="0 0 25 24" fill="none" xmlns="http://www.w3.org/2000/svg">
<path fill-rule="evenodd" clip-rule="evenodd" d="M20.6679 14.874C20.2689 15.015 20.0019 15.393 20.0019 15.816V20H4.00188V15.816C4.00188 15.393 3.73488 15.015 3.33488 14.874C2.29588 14.506 1.74888 13.36 2.11588 12.32C2.29488 11.817 2.65788 11.413 3.13988 11.183C3.41288 11.052 3.70588 10.986 3.99988 10.986C4.22488 10.986 4.44988 11.024 4.66788 11.102C5.46988 11.386 6.00488 12.146 6.00188 13V16C6.00188 16.396 6.23588 16.755 6.59888 16.915C6.95988 17.075 7.38288 17.005 7.67688 16.738C8.86588 15.651 10.4099 15.034 11.9799 15C13.5939 15.034 15.1379 15.651 16.3269 16.738C16.6209 17.007 17.0429 17.072 17.4049 16.915C17.7679 16.755 18.0019 16.396 18.0019 16V13V12.996C17.9999 12.461 18.2059 11.958 18.5819 11.579C18.9579 11.199 19.4589 10.989 19.9929 10.987H20.0019C20.5329 10.987 21.0329 11.193 21.4099 11.567C21.7899 11.943 21.9999 12.445 22.0019 12.979C22.0049 13.829 21.4699 14.59 20.6679 14.874ZM12.0019 2C15.3109 2 18.0019 4.691 18.0019 8V9.544C16.8079 10.24 15.9969 11.523 16.0019 13.001V14.064C14.7859 13.399 13.4129 13.03 11.9799 13C10.5769 13.03 9.21388 13.399 8.00188 14.063V13.004C8.00788 11.556 7.22488 10.241 6.00188 9.532V8C6.00188 4.691 8.69288 2 12.0019 2ZM22.8179 10.147C22.0639 9.398 21.0639 8.987 20.0019 8.987V8C20.0019 3.589 16.4129 0 12.0019 0C7.59088 0 4.00188 3.589 4.00188 8V9.001C3.41188 9 2.82488 9.117 2.27688 9.378C1.31388 9.839 0.586876 10.646 0.230876 11.653C-0.125124 12.661 -0.0681242 13.747 0.392876 14.711C0.745876 15.452 1.30488 16.053 2.00188 16.453V20C2.00188 21.103 2.89888 22 4.00188 22V24H6.00188V22H18.0019V24H20.0019V22C21.1049 22 22.0019 21.103 22.0019 20V16.452C23.2279 15.744 24.0079 14.422 24.0019 12.972C23.9969 11.903 23.5769 10.9 22.8179 10.147Z" fill="#371A2E"/>
</svg>
