<svg width="24" height="24" viewBox="0 0 24 24" fill="none" xmlns="http://www.w3.org/2000/svg">
<path d="M19.5751 10.5362C19.3096 10.4602 19.0328 10.614 18.9569 10.8795C18.881 11.145 19.0347 11.4218 19.3001 11.4977C21.5823 12.1504 23 13.0971 23 13.9683C23 14.6059 22.2245 15.3058 20.8724 15.8884C19.3848 16.5294 17.2745 16.9984 14.9279 17.2097L12.8797 17.1819C12.8774 17.1819 12.8751 17.1819 12.8728 17.1819C12.5998 17.1819 12.3767 17.4013 12.373 17.6751C12.3692 17.9512 12.5901 18.1781 12.8661 18.1818L14.9401 18.2099C14.9424 18.2099 14.9446 18.21 14.9469 18.21C14.9617 18.21 14.9765 18.2093 14.9913 18.208C17.4511 17.9887 19.6802 17.4911 21.2682 16.8068C23.5261 15.8338 24 14.7262 24 13.9683C24 12.5712 22.4285 11.3523 19.5751 10.5362Z" fill="black"/>
<path d="M4.84393 9.96661C4.56783 9.96661 4.34393 10.1905 4.34393 10.4666C4.34393 10.7428 4.56783 10.9666 4.84393 10.9666H6.89998V13.0333H4.84393C4.56783 13.0333 4.34393 13.2571 4.34393 13.5333C4.34393 13.8094 4.56783 14.0333 4.84393 14.0333H7.39998C7.67613 14.0333 7.89998 13.8094 7.89998 13.5333V7.39996C7.89998 7.12381 7.67613 6.89996 7.39998 6.89996H4.84393C4.56783 6.89996 4.34393 7.12381 4.34393 7.39996C4.34393 7.67611 4.56783 7.89996 4.84393 7.89996H6.89998V9.96661H4.84393Z" fill="black"/>
<path d="M9.44397 14.0333H12.5107C12.7868 14.0333 13.0107 13.8095 13.0107 13.5333V10.4667C13.0107 10.1905 12.7868 9.96666 12.5107 9.96666H9.94397V7.89996H12C12.2762 7.89996 12.5 7.67611 12.5 7.39996C12.5 7.12381 12.2762 6.89996 12 6.89996H9.44397C9.16782 6.89996 8.94397 7.12381 8.94397 7.39996V13.5333C8.94397 13.8095 9.16782 14.0333 9.44397 14.0333ZM9.94397 10.9666H12.0107V13.0333H9.94397V10.9666Z" fill="black"/>
<path d="M14.556 14.0333H17.6227C17.8988 14.0333 18.1227 13.8095 18.1227 13.5333V7.39996C18.1227 7.12381 17.8988 6.89996 17.6227 6.89996H14.556C14.2799 6.89996 14.056 7.12381 14.056 7.39996V13.5333C14.056 13.8095 14.2799 14.0333 14.556 14.0333ZM15.056 7.89996H17.1227V13.0333H15.056V7.89996Z" fill="black"/>
<path d="M9.14285 15.2768C8.9645 15.066 8.649 15.0397 8.4382 15.218C8.22735 15.3964 8.20105 15.7118 8.37935 15.9227L9.49765 17.2447C7.13785 17.0647 5.0006 16.6322 3.42915 16.0122C1.8854 15.403 1 14.6581 1 13.9683C1 13.1674 2.1868 12.3043 4.17465 11.6595C4.43735 11.5743 4.5812 11.2923 4.496 11.0296C4.41085 10.767 4.12875 10.6231 3.86615 10.7083C2.7097 11.0834 1.79265 11.5296 1.1404 12.0346C0.3837 12.6206 0 13.2711 0 13.9683C0 15.1235 1.0589 16.1519 3.0621 16.9423C4.6903 17.5848 6.87345 18.0358 9.2734 18.2302L8.2762 19.3354C8.0912 19.5404 8.1074 19.8566 8.31245 20.0416C8.40805 20.1279 8.52785 20.1704 8.64725 20.1704C8.7838 20.1704 8.9199 20.1147 9.0186 20.0053L10.838 17.9891C10.9209 17.8972 10.9668 17.7779 10.9668 17.6541V17.6159C10.9668 17.4977 10.9249 17.3833 10.8485 17.293L9.14285 15.2768Z" fill="black"/>
<path d="M19.0707 6.87429H21.1146C21.3907 6.87429 21.6146 6.65044 21.6146 6.37429V4.32959C21.6146 4.05344 21.3907 3.82959 21.1146 3.82959H19.0707C18.7946 3.82959 18.5707 4.05344 18.5707 4.32959V6.37429C18.5707 6.65044 18.7946 6.87429 19.0707 6.87429ZM19.5707 4.82959H20.6146V5.87429H19.5707V4.82959Z" fill="black"/>
</svg>
