<svg width="25" height="25" viewBox="0 0 25 25" fill="none" xmlns="http://www.w3.org/2000/svg">
<g clip-path="url(#clip0_107_79526)">
<mask id="mask0_107_79526" style="mask-type:alpha" maskUnits="userSpaceOnUse" x="1" y="4" width="23" height="18">
<path d="M10.1295 15.6957L10.1206 8.87093L16.3385 12.2869L10.1295 15.6957ZM23.7636 7.67091C23.7636 7.67091 23.5371 5.99728 22.8467 5.26116C21.9708 4.29483 20.9908 4.29135 20.541 4.23545C17.3225 3.99378 12.4949 4.00002 12.4949 4.00002H12.485C12.485 4.00002 7.65749 4.00628 4.43955 4.25628C3.99013 4.31358 3.01009 4.31948 2.13657 5.28824C1.44781 6.0261 1.22524 7.70008 1.22524 7.70008C1.22524 7.70008 0.997733 9.66608 1.00002 11.6317L1.00201 13.4745C1.00431 15.4401 1.23674 17.4054 1.23674 17.4054C1.23674 17.4054 1.46293 19.0791 2.15333 19.8152C3.02949 20.7815 4.17852 20.7492 4.6904 20.8499C6.53049 21.0339 12.51 21.0839 12.51 21.0839C12.51 21.0839 17.3425 21.0697 20.5604 20.82C21.0099 20.7628 21.9902 20.7565 22.8634 19.7881C23.5522 19.0502 23.7751 17.3759 23.7751 17.3759C23.7751 17.3759 24.0023 15.4103 24 13.4446L23.998 11.6019C23.9957 9.63622 23.7636 7.67091 23.7636 7.67091Z" fill="white"/>
</mask>
<g mask="url(#mask0_107_79526)">
<path d="M27.5113 -4H-2.78711V28H27.5113V-4Z" fill="white"/>
</g>
</g>
<defs>
<clipPath id="clip0_107_79526">
<rect width="25" height="25" fill="white"/>
</clipPath>
</defs>
</svg>
