<svg width="37" height="49" viewBox="0 0 37 49" fill="none" xmlns="http://www.w3.org/2000/svg">
<g clip-path="url(#clip0_52_79470)">
<path d="M36.3979 18.1099C36.3979 26.4763 30.6477 36.2415 18.8979 47.4209C7.14817 36.2415 1.39795 26.4763 1.39795 18.1099C1.39795 8.44488 9.23297 0.609863 18.8979 0.609863C28.5629 0.609863 36.3979 8.44488 36.3979 18.1099Z" fill="#D60070" stroke="white"/>
<path fill-rule="evenodd" clip-rule="evenodd" d="M21.6248 13.7082C21.6248 12.1202 20.2259 10.8332 18.4998 10.8332C16.7738 10.8332 15.3748 12.1202 15.3748 13.7082C15.3748 15.2961 16.7738 16.5832 18.4998 16.5832C20.2259 16.5832 21.6248 15.2961 21.6248 13.7082ZM23.7082 13.7082C23.7082 16.3541 21.3759 18.4998 18.4998 18.4998C15.6248 18.497 13.2946 16.3532 13.2915 13.7082C13.2915 11.0622 15.6238 8.9165 18.4998 8.9165C21.3759 8.9165 23.7082 11.0622 23.7082 13.7082ZM10.1665 25.2082V29.0415H24.7498H25.7915H26.8332V26.1665V25.2082C26.8332 21.8224 23.4061 19.4582 18.4998 19.4582C13.5936 19.4582 10.1665 21.8224 10.1665 25.2082ZM24.7498 26.1665V27.1248H12.2498V25.2082C12.2498 22.9503 14.8196 21.3748 18.4998 21.3748C22.18 21.3748 24.7498 22.9503 24.7498 25.2082V26.1665Z" fill="white"/>
</g>
<defs>
<clipPath id="clip0_52_79470">
<rect width="37" height="49" fill="white"/>
</clipPath>
</defs>
</svg>
