<svg width="36" height="48" viewBox="0 0 36 48" fill="none" xmlns="http://www.w3.org/2000/svg">
<g clip-path="url(#clip0_54_79487)">
<path d="M35.5 18C35.5 26.3664 29.7498 36.1316 18 47.3111C6.25022 36.1316 0.5 26.3664 0.5 18C0.5 8.33502 8.33502 0.5 18 0.5C27.665 0.5 35.5 8.33502 35.5 18Z" fill="#2E3B4E" stroke="white"/>
<mask id="mask0_54_79487" style="mask-type:alpha" maskUnits="userSpaceOnUse" x="8" y="8" width="20" height="21">
<path d="M8.50382 27.4965L9.57128 22.5852L13.4155 26.4285L8.50382 27.4965ZM8.49984 27.5148L8.49988 27.5146L8.49984 27.5148ZM23.123 8.50435L27.495 12.8772L26.143 14.229L21.7702 9.85699L23.123 8.50435ZM10.722 20.9061L20.3561 11.2711L24.7289 15.6431L15.094 25.2798L10.722 20.9061Z" fill="white" stroke="black"/>
</mask>
<g mask="url(#mask0_54_79487)">
<path d="M6.5 29.5V6.5H29.5V29.5H6.5Z" fill="white" stroke="white"/>
</g>
</g>
<defs>
<clipPath id="clip0_54_79487">
<rect width="36" height="48" fill="white"/>
</clipPath>
</defs>
</svg>
