<?xml version="1.0" encoding="UTF-8"?>
<svg width="70px" height="70px" viewBox="0 0 70 70" version="1.1" xmlns="http://www.w3.org/2000/svg" xmlns:xlink="http://www.w3.org/1999/xlink">
    <g id="Device/Gesture/Hold-and-move-tutor-hand-only" stroke="none" stroke-width="1" fill="none" fill-rule="evenodd">
        <g id="Hand" transform="translate(10.999899, 11.255810)">
            <rect id="pivotpoint" x="0" y="0" width="48" height="48"></rect>
            <path d="M42.9788009,13.2577532 C42.2765866,13.2577532 41.5170725,13.3754544 40.9323812,13.6697073 C40.3476898,11.90419 38.7684385,10.7271785 36.8974261,10.6094774 C36.0203891,10.4917762 35.2018212,10.7271785 34.4417224,11.1979831 C33.6816236,9.90327048 32.3953027,9.02051186 30.816636,8.90281071 C30.2319446,8.90281071 29.6472533,9.02051186 29.0625619,9.19706358 L29.0625619,4.78327048 C29.0625619,2.31154634 27.1915496,0.251776225 24.8527841,0.0163739265 C23.5664631,-0.101327223 22.3970804,0.428327949 21.5200434,1.19338542 C20.6430064,2.07614404 20.1167841,3.25315554 20.1167841,4.43016703 L20.1167841,21.2614314 L18.8304631,20.0844199 C16.7840434,18.3189027 14.7960928,18.0246498 13.158957,19.0251096 C12.1065125,19.6136153 11.4048829,20.6140751 11.1125372,21.9087877 C10.8201915,23.2035004 11.1125372,24.498213 11.8141668,25.5575234 L22.3970804,41.6825808 L22.3970804,45.9198222 C22.3970804,46.6848797 23.0987101,47.3910866 23.8588088,47.3910866 L42.0427101,47.3910866 C42.8028088,47.3910866 43.5044385,46.6848797 43.5044385,45.9198222 L43.5044385,40.270167 L46.5448335,34.6205119 C47.0125866,33.6200521 47.3049323,32.6195923 47.3049323,31.560282 L47.3049323,18.0246498 C47.3049323,15.4352245 45.4339199,13.4931555 42.9788009,13.2577532 L42.9788009,13.2577532 Z" id="Path" fill="#000000" opacity="0.5"></path>
            <path d="M44.3814755,31.560282 L44.3814755,31.560282 C44.3814755,32.1487877 44.2060681,32.7372935 43.9721915,33.2669486 L40.6400355,39.2108567 C40.5225125,39.3874084 40.4640434,39.6816613 40.4640434,39.9170636 L40.4640434,44.4485578 L25.3205372,44.4485578 L25.3205372,41.2706268 C25.3205372,40.9763739 25.2035989,40.6821211 25.1451298,40.5055693 L14.0944631,24.0274084 C13.8021175,23.6154544 13.6851792,23.1446498 13.8021175,22.6149946 C13.9190557,22.4384429 13.9775249,21.9087877 14.5037471,21.6145348 C14.6791545,21.4968337 15.2638459,21.1437302 16.8425125,22.3795923 L19.2982162,24.5570636 C19.7659693,24.9690176 19.9998459,25.5575234 19.9998459,26.0283279 L19.9998459,27.1464889 C19.9998459,27.9115463 20.7014755,28.6177532 21.4615743,28.6177532 C22.221673,28.6177532 22.9233027,27.9115463 22.9233027,27.1464889 L22.9233027,24.5570636 L22.9233027,22.7915463 L22.9233027,4.4890176 C22.9233027,4.07706358 23.0987101,3.72396013 23.3910557,3.42970726 C23.6834014,3.13545439 24.0926854,2.95890266 24.5604385,3.01775324 C25.3205372,3.01775324 26.0221668,3.78281071 26.0221668,4.78327048 L26.0221668,10.0798222 L26.0221668,13.434305 L26.0221668,20.3786728 C26.0221668,21.1437302 26.7237965,21.8499371 27.4838952,21.8499371 C28.243994,21.8499371 28.9456236,21.1437302 28.9456236,20.3786728 L28.9456236,13.4931555 C28.9456236,13.0812015 29.121031,12.7280981 29.4133767,12.4338452 C29.7057224,12.1395923 30.115591,11.9630406 30.5827594,12.0218912 C31.3428582,12.0218912 32.0444878,12.7869486 32.0444878,13.7874084 L32.0444878,14.1993624 L32.0444878,15.3763739 L32.0444878,20.6140751 C32.0444878,21.3791325 32.7467022,22.0853394 33.5062162,22.0853394 C34.266315,22.0853394 34.9679446,21.3791325 34.9679446,20.6140751 L34.9679446,15.3763739 C34.9679446,14.9644199 35.143352,14.4936153 35.4356977,14.1993624 C35.7280434,13.9051096 36.1373273,13.7285578 36.6050804,13.7874084 C37.3651792,13.7874084 38.0668088,14.5524659 38.0668088,15.5529257 L38.0668088,16.2591325 L38.0668088,18.1423509 L38.0668088,22.6149946 C38.0668088,23.3800521 38.7684385,24.086259 39.5285372,24.086259 C40.288636,24.086259 40.9902656,23.3800521 40.9902656,22.6149946 L40.9902656,18.1423509 C40.9902656,17.7303969 41.165673,17.3772935 41.4580187,17.0830406 C41.7503644,16.7887877 42.1596483,16.612236 42.6274014,16.6710866 C43.3875002,16.6710866 44.0891298,17.436144 44.0891298,18.4366038 L44.3814755,31.560282 Z" id="Path" fill="#FFFFFF"></path>
        </g>
    </g>
</svg>