<?xml version="1.0" encoding="UTF-8"?>
<svg width="70px" height="70px" viewBox="0 0 70 70" version="1.1" xmlns="http://www.w3.org/2000/svg" xmlns:xlink="http://www.w3.org/1999/xlink">
    <title>Device/Gesture/Hold and move tutor arrows only</title>
    <g id="Device/Gesture/Hold-and-move-tutor-arrows-only" stroke="none" stroke-width="1" fill="none" fill-rule="evenodd">
        <path d="M7.25910215,13.7310211 C7.85890148,13.3518665 8.64685718,13.4472577 9.13885302,13.9585869 L9.23957427,14.0745025 L9.3281065,14.1999746 C9.70726109,14.7997739 9.61186983,15.5877296 9.10054064,16.0797254 L8.98462506,16.1804467 L7.4315281,17.3982496 C12.6888013,16.6364526 18.6345013,16.0958703 24.9589538,15.8167347 C25.7865752,15.7802068 26.4871066,16.4215149 26.5236345,17.2491363 C26.5601623,18.0767577 25.9188543,18.7772891 25.0912328,18.813817 L23.7037196,18.879614 L23.7037196,18.879614 L22.3297558,18.9538815 L20.5202285,19.0658989 C16.3130801,19.3454966 12.3307757,19.7454207 8.68018208,20.2512298 L7.77450617,20.3798796 L9.789879,21.0938795 L9.92375433,21.14859 C10.6164751,21.4710994 10.9632575,22.2737187 10.7029015,23.0086614 C10.4425456,23.7436041 9.66784321,24.1489335 8.92658072,23.9634495 L8.78811961,23.9216839 L1.28777434,21.2635117 L1.17574105,21.2136063 C0.695218387,20.9767388 0.411630691,20.52331 0.355949805,20.0423072 L0.345750809,19.8563029 L0.351390896,19.7365521 L0.351390896,19.7365521 L0.370703346,19.5921565 L0.370703346,19.5921565 C0.424095878,19.3027254 0.563769517,19.0245182 0.796495786,18.798908 L0.928137728,18.6844232 L7.13363009,13.8195533 L7.25910215,13.7310211 Z M62.7631499,13.6329434 L62.8886219,13.7214756 L69.1016073,18.5925998 C69.4471972,18.8635502 69.6313131,19.2365005 69.6691568,19.6185703 L69.6763464,19.7442519 L69.6763464,19.7442519 L69.6700918,19.9086177 L69.6700918,19.9086177 L69.6610214,19.9853522 L69.6610214,19.9853522 L69.6538861,20.030306 L69.6190809,20.1835049 L69.6190809,20.1835049 L69.5630309,20.3452997 L69.5630309,20.3452997 L69.5577204,20.3578948 C69.4450136,20.6287028 69.2519208,20.8691938 68.9856885,21.0375534 L68.806557,21.1345131 L68.6992259,21.1790957 L68.6992259,21.1790957 L61.2341324,23.8236063 C60.4532558,24.1002345 59.5959787,23.6914604 59.3193505,22.9105837 C59.0589945,22.175641 59.4057769,21.3730218 60.0984977,21.0505123 L60.232373,20.9958018 L62.2469434,20.2816861 C57.0882638,19.5306339 51.2279687,18.9951613 44.981946,18.7179931 C44.1543333,18.6812677 43.5131925,17.9805832 43.549918,17.1529705 C43.5866434,16.3253578 44.2873279,15.684217 45.1149406,15.7209425 C46.0576035,15.7627733 46.9918262,15.8104138 47.9165822,15.8637307 L49.7531679,15.9778931 C50.9687381,16.0589943 52.1662622,16.1500284 53.3433075,16.2506792 L55.0932119,16.4088283 C57.7133835,16.6585886 60.2220889,16.9569445 62.5909956,17.300212 L61.0376269,16.082369 C60.4264307,15.603177 60.2879084,14.7445391 60.6941455,14.1018969 L60.7826777,13.9764249 C61.2618697,13.3652286 62.1205077,13.2267064 62.7631499,13.6329434 Z" id="Shape" fill="#FFFFFF" fill-rule="nonzero"></path>
    </g>
</svg>