<svg width="37px" height="49px" viewBox="0 0 37 49" version="1.1" xmlns="http://www.w3.org/2000/svg" xmlns:xlink="http://www.w3.org/1999/xlink">
    <defs>
        <path d="M20,10 L20,22.6713535 C20,23.1804704 19.7071974,23.5992115 19.3275193,23.6606207 L19.2309091,23.6683741 L17.7690909,23.6683741 L17.6792698,23.6616792 C17.328213,23.6089838 17.049985,23.251094 17.0060516,22.7973278 L17,22.6713535 L17,10 L20,10 Z M10,4 C11.622068,4 13.1440085,4.38133648 14.4583988,5.04875426 C14.6139947,6.06447468 15.0829132,7.04066067 15.8649227,7.82267022 C16.5540454,8.51179296 17.4331542,8.89883159 18.3355167,8.97986399 L18.345782,8.99942126 L17,9 L16.8833789,9.00672773 C16.424297,9.06004937 16.0600494,9.42429701 16.0067277,9.88337887 L16,10 L16.000328,10.0850831 C15.8439253,10.0299693 15.6755411,10 15.5,10 C14.67,10 14,10.67 14,11.5 C14,12.33 14.67,13 15.5,13 C15.6755411,13 15.8439253,12.9700307 16.000328,12.9149169 L15.999926,16.5835133 C15.474891,16.8131065 14.9029088,16.9551016 14.3024922,16.990986 L14,17 L12.23,17 C11.4,17 10.73,17.67 10.73,18.5 C10.73,18.88 10.88,19.23 11.11,19.49 C11.35,19.76 11.5,20.11 11.5,20.5 C11.5,21.33 10.83,22 10,22 C5.03,22 1,17.97 1,13 C1,8.03 5.03,4 10,4 Z M4.5,10 C3.67,10 3,10.67 3,11.5 C3,12.33 3.67,13 4.5,13 C5.33,13 6,12.33 6,11.5 C6,10.67 5.33,10 4.5,10 Z M7.5,6 C6.67,6 6,6.67 6,7.5 C6,8.33 6.67,9 7.5,9 C8.33,9 9,8.33 9,7.5 C9,6.67 8.33,6 7.5,6 Z M12.5,6 C11.67,6 11,6.67 11,7.5 C11,8.33 11.67,9 12.5,9 C13.33,9 14,8.33 14,7.5 C14,6.67 13.33,6 12.5,6 Z M20.8146702,0.0444956291 C20.2465253,0.612640556 19.917754,1.83421096 20.7009031,2.75002438 L20.8146702,2.87292275 L20.9498916,3.0171481 C21.9433936,4.14800214 21.9433936,5.84048406 20.9498916,6.9713381 L20.8146702,7.11556344 L20.6704448,7.25078488 C19.4904232,8.28748262 17.6988749,8.24240881 16.5720295,7.11556344 C15.0093235,5.55285745 15.0093235,3.02141518 16.5720295,1.45870919 C17.6397607,0.390977952 19.3014617,-0.167636405 20.8146702,0.0444956291 Z" id="path-1"></path>
    </defs>
    <g id="Page-LG-1440" stroke="none" stroke-width="1" fill="none" fill-rule="evenodd">
        <g id="Desktop-1440---Flow-40---Bathroom" transform="translate(-378.000000, -364.000000)">
            <g id="Component-/-Roomview" transform="translate(-209.000000, 0.000000)">
                <g id="Component-/-Room-/-Selectors" transform="translate(587.000000, 157.000000)">
                    <g id="Element-/-Selector/-Edit-Copy" transform="translate(0.897983, 207.109748)">
                        <path d="M18,48 C30,36.6666667 36,26.6666667 36,18 C36,8.0588745 27.9411255,0 18,0 C8.0588745,0 0,8.0588745 0,18 C0,26.6666667 6,36.6666667 18,48 Z" id="Oval" fill="#00D2D3"></path>
                        <g id="Icon/Security/visibility" transform="translate(6.000000, 6.000000)">
                            <mask id="mask-2" fill="white">
                                <use xlink:href="#path-1"></use>
                            </mask>
                            <g id="Combined-Shape"></g>
                            <g id="Group" mask="url(#mask-2)" fill="#FFFFFF">
                                <g id="icon-color">
                                    <rect id="Swatch" x="0" y="0" width="24" height="24"></rect>
                                </g>
                            </g>
                        </g>
                    </g>
                </g>
            </g>
        </g>
    </g>
</svg>