<svg viewBox="0 0 719.76 1357.41" xmlns="http://www.w3.org/2000/svg" xmlns:xlink="http://www.w3.org/1999/xlink"><clipPath id="a"><path d="m0 0h719.76v1357.41h-719.76z"/></clipPath><clipPath id="b"><path d="m0 0h719.76v1357.41h-719.76z"/></clipPath><clipPath id="c"><path d="m2.01 951.82h717.68v405.59h-717.68z"/></clipPath><clipPath id="d"><path d="m1.4 898.69h718.36v397.15h-718.36z"/></clipPath><clipPath id="e"><path d="m1.32 845.88h718.36v397.15h-718.36z"/></clipPath><clipPath id="f"><path d="m1.16 792.89h718.36v397.15h-718.36z"/></clipPath><clipPath id="g"><path d="m1.02 740.16h718.36v397.15h-718.36z"/></clipPath><clipPath id="h"><path d="m.86 687.44h718.36v397.15h-718.36z"/></clipPath><clipPath id="i"><path d="m.69 634.66h718.36v397.15h-718.36z"/></clipPath><clipPath id="j"><path d="m.55 581.96h718.36v397.15h-718.36z"/></clipPath><clipPath id="k"><path d="m.39 529.26h718.36v397.15h-718.36z"/></clipPath><clipPath id="l"><path d="m.24 476.57h718.36v397.15h-718.36z"/></clipPath><clipPath id="m"><path d="m.1 423.83h718.36v397.15h-718.36z"/></clipPath><clipPath id="n"><path d="m0 370.96h718.36v397.15h-718.36z"/></clipPath><clipPath id="o"><path d="m200.01 556.89h369.23v211.22h-369.23z"/></clipPath><clipPath id="p"><path d="m.64 0h717.48v346.75h-717.48z"/></clipPath><g clip-path="url(#a)"><g clip-path="url(#b)"><g clip-path="url(#c)"><path d="m320.18 951.82 399.31 194.76-318.19 149.36-399.29-194.74z" fill="#616e83"/><path d="m719.49 1146.58.2 61.47-318.19 149.36-.2-61.47z" fill="#4f5a6b"/><path d="m401.3 1295.94.2 61.47-399.29-194.75-.2-61.46z" fill="#7f90ab"/></g></g><g fill="#a1a8b4"><path d="m199.83 1144.94-55.01 25.82-59.65-29.09 55.02-25.82z"/><path d="m372.73 1229.26-55.02 25.83-59.67-29.1 55.02-25.83z"/><path d="m667.07 1170.89-50 23.47-48.49-23.65 50-23.48z"/><path d="m316.28 999.79-51.77 24.3-48.49-23.65 51.76-24.3z"/></g><path d="m12.7 1069.96 83.22 43.93 48.25-17.07 35.86 17.07-10.56 28.73 40.51 15.86 48.88-26.43 5.73-27.74 57.24-38.31-39.41-17.18 13.43-38.75-93.36-35.23z" fill="#8b9dbb"/><path d="m315.67 1158.48 42.93-33.03 36.11-4.62 123.53 11.22 33.02 60.33-122.2 78.39-79.93-37.43-6.16-37.54z" fill="#8b9dbb"/><path d="m697.04 1119.95-94.65 14.32-.54.09-15.35 2.32-8.23 22.94-.14.4-10.35 28.84-26.89-15.41-37.09-21.26-1.94-1.11-21.28-12.2-13.84-11.5-14.78-12.28 4.89-7.08.17-.26 11.62-16.83 7.32-10.62 12.19-20.98 9.17-15.79 8.75-1.12 13.3-1.7 14.06-1.8 146.95 72.78.34.17z" fill="#8b9dbb"/><path d="m282.42 977.26 21.36-36.77 36.11-4.62 163.61 81.03-75.54 32.37-96.22 9.02-44.7-22.46 23.12-20.91z" fill="#8b9dbb"/><g clip-path="url(#b)"><g clip-path="url(#d)"><path d="m319.94 899.03.16 52.68-51.84 24.34-.16-52.69z" fill="#4e5869"/><path d="m315.88 947.01.17 52.69-48.49-23.65-.17-52.69z" fill="#7c8ca7"/><path d="m264.48 971.15.16 52.68-48.5-23.31-.17-52.68z" fill="#7c8ca7"/><path d="m316.58 947.01.17 52.69-51.76 24.3-.17-52.69z" fill="#4e5869"/><path d="m519.23 996.23.17 52.69-199.3-97.21-.16-52.68z" fill="#7c8ca7"/><path d="m317.52 997.36.17 52.69-53.41-26.05-.16-52.68z" fill="#7c8ca7"/><path d="m318.24 997.37.16 52.68-44.61 20.95-.16-52.69z" fill="#4e5869"/><path d="m450.19 1028.98.17 52.68-39-18.67-.17-52.69z" fill="#7c8ca7"/><path d="m519.93 996.23.17 52.69-69.74 32.74-.17-52.68z" fill="#4e5869"/><path d="m215.97 947.84.17 52.68-213.85 100.4-.17-52.69z" fill="#4e5869"/><path d="m718.89 1093.61.17 52.69-199.31-97.21-.17-52.69z" fill="#7c8ca7"/><path d="m319.94 898.69 200 97.54-69.75 32.77-39-18.68-78.81 37-59.46-29 44.61-20.94-53.41-26.05 51.76-24.33-48.49-23.65zm129.9 130.11 69.39-32.57-199.29-97.23-51.84 24.36 48.48 23.64-51.76 24.3 53.42 26.06-44.62 20.94 58.76 28.7 78.83-37 38.63 18.84" fill="#657288"/><path d="m332.38 1047.31.16 52.68-59.46-29-.16-52.68z" fill="#7c8ca7"/><path d="m411.19 1010.3.17 52.69-78.82 37-.16-52.68z" fill="#4e5869"/><path d="m488.11 1047.82.17 52.68-38.63-18.84-.17-52.69z" fill="#7c8ca7"/><path d="m332.38 1047.31.16 52.68-29.14 13.68-.17-52.68z" fill="#4e5869"/><path d="m312.58 1065.93.17 52.69-10.05-4.95-.17-52.69z" fill="#7c8ca7"/><path d="m488.81 1047.82.17 52.68-78.82 37.01-.17-52.69z" fill="#4e5869"/><path d="m85.1 1089.05.17 52.69-83.7-40.82-.17-52.69z" fill="#7c8ca7"/><path d="m140.12 1063.23.16 52.68-55.01 25.83-.17-52.69z" fill="#4e5869"/><path d="m199.44 1092.16.16 52.68-59.32-28.93-.16-52.68z" fill="#7c8ca7"/><path d="m468.78 1113.83.17 52.69-59.2-28.87-.17-52.69z" fill="#7c8ca7"/><path d="m468.78 1113.83.17 52.69-59.49-29.01-.17-52.69z" fill="#7c8ca7"/><path d="m409.58 1084.96.17 52.69-29.56 13.87-.17-52.68z" fill="#4e5869"/><path d="m380.02 1098.84.17 52.68-10.04-4.89-.17-52.69z" fill="#7c8ca7"/><path d="m313.28 1065.94.17 52.69-85.04 39.92-.17-52.69z" fill="#4e5869"/><path d="m548.23 1109.88.16 52.69-34.84-16.99-.16-52.69z" fill="#7c8ca7"/><path d="m548.23 1109.88.16 52.69-34.84-16.99-.16-52.69z" fill="#7c8ca7"/><g fill="#4e5869"><path d="m513.39 1092.89.16 52.69-44.6 20.94-.17-52.69z"/><path d="m200.14 1092.16.17 52.68-55.01 25.83-.17-52.69z"/><path d="m618.55 1094.63.17 52.69-49.66 23.29-.17-52.68z"/></g><path d="m667.04 1118.28.17 52.69-48.49-23.65-.17-52.69z" fill="#7c8ca7"/><path d="m719.59 1093.61.17 52.69-52.55 24.67-.17-52.69z" fill="#4e5869"/><path d="m312.58 1065.93-10.05-4.95 29.5-13.84.35.17-29.15 13.68 10.05 4.95-85.04 39.92 28.19 13.75-.37.17-28.53-13.92z" fill="#657288"/><path d="m256.43 1119.61.16 52.68-.36.17-.17-52.68z" fill="#4e5869"/><path d="m256.06 1119.78.17 52.68-28.53-13.91-.17-52.69z" fill="#7c8ca7"/><path d="m548.23 1109.88.16 52.69-44.49 20.89-.17-52.69z" fill="#4e5869"/><path d="m548.93 1109.88.17 52.69-44.5 20.89-.17-52.69z" fill="#4e5869"/><path d="m369.98 1093.94.17 52.69-85.04 39.92-.17-52.69z" fill="#4e5869"/><path d="m284.94 1133.86.17 52.69-28.53-13.92-.17-52.68z" fill="#7c8ca7"/><path d="m616.68 1141.58.17 52.69-48.5-23.65-.17-52.69z" fill="#7c8ca7"/><path d="m145.13 1117.98 56.28 27.46-56.99-27.46 55.02-25.82-59.32-28.93-55.02 25.82-83.69-40.82 214.57-100.74 48.5 23.65-48.51-23.31-213.85 100.4 83 40.49 55.01-25.83 60.01 29.27z" fill="#657288"/><path d="m201.41 1145.44.17 52.68-56.99-27.45-.17-52.68z" fill="#7c8ca7"/><path d="m256.41 1119.95.17 52.68-54.66 25.66-.16-52.68z" fill="#4e5869"/><path d="m570.78 1163.47.17 52.69-67.05-32.7-.17-52.69z" fill="#7c8ca7"/><path d="m570.31 1163.35.17 52.69-66.69-32.53-.17-52.68z" fill="#7c8ca7"/><path d="m372.33 1176.48.17 52.69-59.32-28.93-.17-52.69z" fill="#7c8ca7"/><path d="m373.05 1176.49.16 52.68-55.01 25.83-.17-52.68z" fill="#4e5869"/><path d="m548.23 1109.88-44.5 20.89 67.05 32.7-169.73 79.68-83.73-40.84 55.01-25.83-59.32-28.93-55.02 25.83-56.59-27.61 55.03-26.16 28.53 13.92 85.04-39.93 10.04 4.9 29.55-13.87 59.19 29.2-59.2-28.87-29.56 13.88-10.04-4.9-85.04 39.92-28.53-13.91-54.65 25.65 56.24 27.44 55.02-25.83 60.03 29.28-55.02 25.83 83.03 40.49 169.25-79.46-66.69-32.52 44.61-20.95-34.84-16.99z" fill="#657288"/><path d="m719.59 1093.61-52.55 24.67-48.49-23.65-49.66 23.3 48.5 23.66-46.61 21.88-67.05-32.7 44.5-20.89-34.85-16.99-44.6 20.94-59.49-29.01 78.82-37-38.63-18.85 39.33 18.85-78.82 37 58.8 28.68 44.61-20.95 35.53 17.33-44.5 20.89 66.35 32.36 45.9-21.55-48.5-23.65 50.38-23.64 48.5 23.65 51.83-24.33-199.31-97.21z" fill="#657288"/><path d="m617.39 1141.59.17 52.68-46.61 21.89-.17-52.69z" fill="#4e5869"/><path d="m257.99 1173.38.17 52.69-56.6-27.61-.16-52.69z" fill="#7c8ca7"/><path d="m313.01 1147.55.17 52.69-55.02 25.82-.17-52.68z" fill="#4e5869"/><path d="m570.78 1163.47.17 52.69-169.73 79.68-.17-52.69z" fill="#4e5869"/><path d="m401.05 1243.15.17 52.69-83.73-40.84-.17-52.69z" fill="#7c8ca7"/></g></g><path d="m199.75 1092.12-55.01 25.83-59.65-29.09 55.02-25.83z" fill="#a1a8b4"/><path d="m372.65 1176.45-55.02 25.83-59.67-29.11 55.02-25.82z" fill="#a1a8b4"/><path d="m666.99 1118.07-50 23.48-48.49-23.66 50-23.47z" fill="#a1a8b4"/><path d="m316.19 946.98-51.76 24.3-48.49-23.65 51.76-24.3z" fill="#a1a8b4"/><path d="m12.61 1017.15 83.23 43.92 48.25-17.06 35.86 17.06-10.57 28.74 40.52 15.85 48.88-26.42 5.72-27.74 57.25-38.32-39.41-17.17 13.43-38.75-93.36-35.23z" fill="#8b9dbb"/><path d="m315.58 1105.66 42.94-33.03 36.11-4.62 123.52 11.23 33.03 60.33-122.2 78.38-79.93-37.43-6.16-37.54z" fill="#8b9dbb"/><path d="m696.96 1067.13-94.65 14.32-.54.09-15.35 2.32-8.23 22.94-.14.4-10.35 28.84-26.89-15.41-37.09-21.26-1.94-1.11-21.28-12.2-13.84-11.5-14.78-12.28 4.89-7.08.17-.26 11.62-16.83 7.32-10.62 12.19-20.98 9.17-15.79 8.75-1.12 13.3-1.7 14.06-1.8 146.95 72.78.34.17z" fill="#8b9dbb"/><path d="m282.34 924.45 21.35-36.77 36.12-4.62 163.6 81.02-75.53 32.37-96.22 9.03-44.7-22.46 23.12-20.92z" fill="#8b9dbb"/><g clip-path="url(#b)"><g clip-path="url(#e)"><path d="m319.85 846.21.17 52.69-51.84 24.34-.17-52.69z" fill="#4e5869"/><path d="m315.8 894.2.17 52.69-48.49-23.66-.17-52.68z" fill="#7c8ca7"/><path d="m264.39 918.33.17 52.69-48.5-23.32-.17-52.68z" fill="#7c8ca7"/><path d="m316.5 894.2.17 52.69-51.76 24.3-.17-52.69z" fill="#4e5869"/><path d="m519.15 943.42.17 52.68-199.3-97.2-.17-52.69z" fill="#7c8ca7"/><path d="m317.45 944.55.17 52.69-53.41-26.05-.17-52.69z" fill="#7c8ca7"/><path d="m318.15 944.55.17 52.69-44.61 20.94-.17-52.69z" fill="#4e5869"/><path d="m450.11 976.16.17 52.69-39-18.67-.17-52.69z" fill="#7c8ca7"/><path d="m519.86 943.42.16 52.69-69.74 32.74-.17-52.69z" fill="#4e5869"/><path d="m215.89 895.02.17 52.68-213.86 100.41-.17-52.69z" fill="#4e5869"/><path d="m718.81 1040.8.17 52.69-199.31-97.22-.17-52.68z" fill="#7c8ca7"/><path d="m319.86 845.88 200 97.54-69.74 32.74-39-18.67-78.82 37-59.45-29 44.61-20.94-53.46-26.05 51.76-24.3-48.49-23.65zm129.9 130.12 69.39-32.58-199.3-97.2-51.85 24.33 48.5 23.65-51.76 24.3 53.41 26-44.61 20.94 58.77 28.66 78.82-37z" fill="#657288"/><path d="m332.29 994.49.17 52.69-59.46-29-.16-52.69z" fill="#7c8ca7"/><path d="m411.11 957.49.17 52.69-78.82 37-.16-52.69z" fill="#4e5869"/><path d="m488.02 995 .17 52.69-38.63-18.84-.16-52.69z" fill="#7c8ca7"/><path d="m332.3 994.49.16 52.69-29.14 13.68-.17-52.69z" fill="#4e5869"/><path d="m312.5 1013.12.16 52.69-10.04-4.95-.17-52.69z" fill="#7c8ca7"/><path d="m488.73 995 .17 52.69-78.82 37-.16-52.68z" fill="#4e5869"/><path d="m85.02 1036.24.17 52.69-83.7-40.82-.17-52.69z" fill="#7c8ca7"/><path d="m140.04 1010.41.17 52.69-55.02 25.83-.17-52.69z" fill="#4e5869"/><path d="m199.36 1039.34.17 52.69-59.32-28.93-.17-52.69z" fill="#7c8ca7"/><path d="m468.7 1061.02.17 52.69-59.5-29.02-.17-52.69z" fill="#7c8ca7"/><path d="m548.15 1057.07.17 52.69-34.84-17-.17-52.68z" fill="#7c8ca7"/><path d="m548.15 1057.07.17 52.69-34.84-17-.17-52.68z" fill="#7c8ca7"/><g fill="#4e5869"><path d="m513.31 1040.08.17 52.68-44.61 20.95-.17-52.69z"/><path d="m618.46 1041.82.17 52.68-49.65 23.3-.17-52.68z"/><path d="m548.15 1057.07.17 52.69-44.5 20.89-.17-52.69z"/><path d="m548.85 1057.07.17 52.69-44.49 20.88-.17-52.68z"/></g><path d="m616.61 1088.77.16 52.68-48.5-23.65-.16-52.69z" fill="#7c8ca7"/><path d="m313.2 1013.12.16 52.69-85.04 39.92-.16-52.68z" fill="#4e5869"/><path d="m256.34 1066.8.17 52.68-.35.17-.17-52.69z" fill="#4e5869"/><path d="m255.99 1066.96.17 52.69-28.54-13.92-.16-52.68z" fill="#7c8ca7"/><path d="m369.91 1041.12.17 52.69-85.04 39.92-.17-52.68z" fill="#4e5869"/><path d="m284.87 1081.05.17 52.68-28.54-13.91-.16-52.69z" fill="#7c8ca7"/><path d="m256.33 1067.13.17 52.69-54.66 25.66-.17-52.69z" fill="#4e5869"/><path d="m570.7 1110.66.17 52.69-67.05-32.7-.17-52.69z" fill="#7c8ca7"/><path d="m570.23 1110.54.17 52.69-66.7-32.53-.16-52.69z" fill="#7c8ca7"/><path d="m379.95 1046.02.17 52.69-10.04-4.9-.17-52.68z" fill="#7c8ca7"/><path d="m372.26 1123.67.17 52.69-59.33-28.94-.17-52.69z" fill="#7c8ca7"/><path d="m372.96 1123.67.17 52.69-55.02 25.83-.17-52.69z" fill="#4e5869"/><path d="m548.15 1057.07-44.5 20.89 67.05 32.7-169.73 79.68-83.73-40.84 55.02-25.83-59.33-28.94-55.01 25.83-56.61-27.6 55.03-26.16 28.53 13.91 85.04-39.92 10.05 4.89 29.55-13.87 59.19 29.21-59.2-28.87-29.55 13.87-10.04-4.9-85.04 39.93-28.53-13.92-54.66 25.66 56.24 27.43 55.02-25.82 60.02 29.27-55.02 25.83 83.04 40.5 169.25-79.46-66.69-32.53 44.61-20.94-34.84-16.99z" fill="#657288"/><path d="m719.51 1040.8-52.55 24.67-48.5-23.65-49.65 23.3 48.5 23.65-46.61 21.89-67.05-32.7 44.5-20.89-34.84-16.99-44.61 20.94-59.5-29.02 78.82-37-38.62-18.84 39.33 18.84-78.81 37.01 58.79 28.67 44.61-20.94 35.53 17.33-44.49 20.89 66.35 32.36 45.9-21.55-48.5-23.66 50.37-23.63 48.5 23.65 51.83-24.33-199.31-97.21z" fill="#657288"/><path d="m409.5 1032.15.17 52.69-29.55 13.87-.17-52.69z" fill="#4e5869"/><path d="m468.7 1061.02.17 52.69-59.2-28.87-.17-52.69z" fill="#7c8ca7"/><path d="m200.06 1039.35.17 52.68-55.02 25.83-.16-52.69z" fill="#4e5869"/><path d="m666.96 1065.47.17 52.69-48.5-23.66-.17-52.68z" fill="#7c8ca7"/><path d="m719.51 1040.8.17 52.69-52.55 24.67-.17-52.69z" fill="#4e5869"/><path d="m312.5 1013.12-10.05-4.95 29.5-13.84.35.16-29.15 13.68 10.05 4.95-85.04 39.93 28.18 13.75-.35.16-28.53-13.91z" fill="#657288"/><path d="m145.05 1065.17 56.28 27.45-56.99-27.45 55.02-25.83-59.32-28.93-55.02 25.83-83.7-40.82 214.58-100.74 48.49 23.65-48.5-23.31-213.86 100.4 83.01 40.48 55.01-25.82 60.01 29.27z" fill="#657288"/><path d="m201.33 1092.62.17 52.69-56.99-27.45-.17-52.69z" fill="#7c8ca7"/><path d="m617.31 1088.77.17 52.69-46.61 21.89-.17-52.69z" fill="#4e5869"/><path d="m257.92 1120.56.16 52.69-56.6-27.6-.17-52.69z" fill="#7c8ca7"/><path d="m312.93 1094.73.17 52.69-55.02 25.83-.16-52.69z" fill="#4e5869"/><path d="m570.7 1110.66.17 52.69-169.73 79.68-.17-52.69z" fill="#4e5869"/><path d="m400.97 1190.34.17 52.69-83.74-40.84-.16-52.69z" fill="#7c8ca7"/></g></g><path d="m199.58 1039.14-55.01 25.83-59.65-29.09 55.02-25.83z" fill="#a1a8b4"/><path d="m372.49 1123.47-55.02 25.83-59.67-29.11 55.01-25.82z" fill="#a1a8b4"/><path d="m666.82 1065.09-50 23.47-48.49-23.65 50-23.47z" fill="#a1a8b4"/><path d="m316.02 894-51.76 24.3-48.48-23.65 51.76-24.3z" fill="#a1a8b4"/><path d="m12.45 964.17 83.23 43.92 48.25-17.06 35.86 17.06-10.57 28.74 40.51 15.85 48.88-26.42 5.73-27.75 57.24-38.31-39.41-17.17 13.43-38.75-93.35-35.23z" fill="#8b9dbb"/><path d="m315.42 1052.68 42.94-33.03 36.11-4.62 123.52 11.23 33.03 60.33-122.21 78.38-79.92-37.43-6.17-37.54z" fill="#8b9dbb"/><path d="m696.79 1014.15-94.65 14.32-.54.09-15.35 2.32-8.23 22.94-.14.4-10.35 28.84-26.89-15.41-37.09-21.26-1.94-1.11-21.28-12.2-13.84-11.5-14.78-12.28 4.89-7.08.17-.26 11.62-16.83 7.32-10.62 12.19-20.98 9.17-15.79 8.75-1.12 13.3-1.7 14.06-1.8 146.95 72.78.34.17z" fill="#8b9dbb"/><path d="m282.17 871.47 21.36-36.77 36.11-4.62 163.61 81.02-75.54 32.37-96.22 9.03-44.69-22.46 23.12-20.92z" fill="#8b9dbb"/><g clip-path="url(#b)"><g clip-path="url(#f)"><path d="m319.69 793.23.16 52.69-51.84 24.33-.16-52.68z" fill="#4e5869"/><path d="m315.63 841.21.17 52.69-48.49-23.65-.16-52.69z" fill="#7c8ca7"/><path d="m264.23 865.35.16 52.68-48.49-23.31-.17-52.69z" fill="#7c8ca7"/><path d="m316.34 841.22.17 52.68-51.76 24.31-.17-52.69z" fill="#4e5869"/><path d="m518.99 890.43.16 52.69-199.29-97.2-.17-52.69z" fill="#7c8ca7"/><path d="m317.28 891.56.17 52.69-53.41-26.05-.17-52.69z" fill="#7c8ca7"/><path d="m317.99 891.57.17 52.68-44.61 20.95-.17-52.69z" fill="#4e5869"/><path d="m449.94 923.18.17 52.69-38.99-18.68-.17-52.68z" fill="#7c8ca7"/><path d="m519.69 890.44.16 52.68-69.74 32.75-.17-52.69z" fill="#4e5869"/><path d="m215.73 842.03.17 52.69-213.86 100.4-.17-52.68z" fill="#4e5869"/><path d="m718.64 987.81.17 52.69-199.31-97.21-.17-52.69z" fill="#7c8ca7"/><path d="m319.69 792.89 200 97.54-69.75 32.75-39-18.67-78.82 37-59.46-29 44.61-21-53.41-26 51.76-24.3-48.48-23.65zm129.91 130.11 69.4-32.57-199.3-97.2-51.84 24.33 48.49 23.66-51.76 24.3 53.41 26.05-44.61 20.94 58.76 28.66 78.82-37z" fill="#657288"/><path d="m332.13 941.51.17 52.69-59.46-29.01-.17-52.68z" fill="#7c8ca7"/><path d="m410.95 904.51.17 52.68-78.82 37.01-.17-52.69z" fill="#4e5869"/><path d="m487.86 942.02.17 52.69-38.63-18.84-.16-52.69z" fill="#7c8ca7"/><path d="m332.13 941.51.17 52.69-29.14 13.68-.17-52.69z" fill="#4e5869"/><path d="m312.33 960.13.17 52.69-10.05-4.95-.17-52.68z" fill="#7c8ca7"/><path d="m488.57 942.02.17 52.69-78.82 37-.17-52.68z" fill="#4e5869"/><path d="m84.86 983.26.17 52.69-83.7-40.83-.17-52.68z" fill="#7c8ca7"/><path d="m139.87 957.43.17 52.69-55.01 25.83-.17-52.69z" fill="#4e5869"/><path d="m199.19 986.36.16 52.69-59.31-28.93-.17-52.69z" fill="#7c8ca7"/><path d="m409.34 979.16.16 52.69-29.55 13.87-.16-52.68z" fill="#4e5869"/><path d="m379.79 993.04.16 52.68-10.03-4.89-.17-52.69z" fill="#7c8ca7"/><path d="m313.03 960.14.17 52.69-85.04 39.92-.17-52.68z" fill="#4e5869"/><path d="m547.98 1004.08.17 52.69-34.83-16.99-.17-52.69z" fill="#7c8ca7"/><path d="m547.98 1004.08.17 52.69-34.83-16.99-.17-52.69z" fill="#7c8ca7"/><path d="m468.54 1008.04.16 52.69-59.49-29.02-.17-52.69z" fill="#7c8ca7"/><path d="m513.15 987.09.17 52.69-44.62 20.94-.16-52.68z" fill="#4e5869"/><path d="m468.54 1008.04.16 52.69-59.2-28.88-.16-52.69z" fill="#7c8ca7"/><path d="m199.9 986.36.17 52.69-55.02 25.83-.17-52.69z" fill="#4e5869"/><path d="m618.3 988.83.17 52.69-49.66 23.3-.16-52.69z" fill="#4e5869"/><path d="m666.8 1012.49.17 52.68-48.5-23.65-.17-52.69z" fill="#7c8ca7"/><path d="m719.35 987.82.17 52.69-52.55 24.66-.17-52.68z" fill="#4e5869"/><path d="m312.33 960.13-10.05-4.94 29.5-13.85.35.17-29.14 13.68 10.04 4.95-85.04 39.93 28.19 13.74-.37.17-28.53-13.92z" fill="#657288"/><path d="m256.18 1013.81.16 52.69-.36.17-.17-52.69z" fill="#4e5869"/><path d="m255.81 1013.98.17 52.69-28.53-13.92-.17-52.69z" fill="#7c8ca7"/><g fill="#4e5869"><path d="m547.98 1004.08.17 52.69-44.5 20.89-.17-52.69z"/><path d="m548.69 1004.09.17 52.69-44.5 20.88-.17-52.68z"/><path d="m369.75 988.14.17 52.69-85.05 39.92-.17-52.68z"/></g><path d="m284.7 1028.07.17 52.69-28.54-13.92-.16-52.69z" fill="#7c8ca7"/><path d="m616.44 1035.79.17 52.69-48.51-23.66-.17-52.69z" fill="#7c8ca7"/><path d="m144.88 1012.19 56.28 27.45-56.99-27.45 55.02-25.83-59.31-28.93-55.02 25.83-83.7-40.82 214.58-100.74 48.49 23.65-48.5-23.32-213.86 100.41 83 40.48 55.01-25.83 60.02 29.27z" fill="#657288"/><path d="m201.16 1039.64.17 52.68-56.99-27.45-.17-52.68z" fill="#7c8ca7"/><path d="m256.17 1014.15.16 52.69-54.65 25.66-.17-52.69z" fill="#4e5869"/><path d="m570.53 1057.67.17 52.69-67.05-32.7-.16-52.69z" fill="#7c8ca7"/><path d="m570.07 1057.56.17 52.69-66.7-32.54-.17-52.68z" fill="#7c8ca7"/><path d="m719.35 987.82-52.55 24.67-48.5-23.66-49.65 23.3 48.5 23.66-46.62 21.88-67.04-32.7 44.49-20.89-34.83-16.99-44.61 20.95-59.5-29.02 78.82-37-38.62-18.84 39.33 18.84-78.82 37.01 58.79 28.67 44.61-20.94 35.54 17.33-44.5 20.89 66.35 32.36 45.9-21.55-48.51-23.66 50.39-23.63 48.49 23.65 51.83-24.34-199.31-97.21z" fill="#657288"/><path d="m617.15 1035.79.16 52.68-46.61 21.89-.17-52.69z" fill="#4e5869"/><path d="m257.74 1067.58.17 52.69-56.59-27.61-.17-52.68z" fill="#7c8ca7"/><path d="m312.76 1041.75.17 52.69-55.02 25.83-.17-52.69z" fill="#4e5869"/><path d="m372.09 1070.69.17 52.69-59.33-28.94-.17-52.69z" fill="#7c8ca7"/><path d="m372.8 1070.69.16 52.69-55.01 25.82-.17-52.68z" fill="#4e5869"/><path d="m547.98 1004.08-44.5 20.89 67.05 32.7-169.73 79.69-83.73-40.84 55.02-25.83-59.33-28.94-55.02 25.83-56.59-27.6 55.03-26.17 28.53 13.92 85.04-39.93 10.04 4.9 29.55-13.87 59.2 29.21-59.2-28.88-29.55 13.88-10.04-4.9-85.05 39.93-28.53-13.92-54.66 25.66 56.25 27.43 55.01-25.83 60.03 29.28-55.02 25.83 83.04 40.5 169.25-79.46-66.7-32.53 44.61-20.95-34.83-16.99z" fill="#657288"/><path d="m570.53 1057.67.17 52.69-169.73 79.68-.17-52.68z" fill="#4e5869"/><path d="m400.8 1137.36.17 52.68-83.73-40.84-.17-52.68z" fill="#7c8ca7"/></g></g><path d="m199.44 986.41-55.01 25.83-59.65-29.1 55.01-25.82z" fill="#a1a8b4"/><path d="m372.34 1070.74-55.01 25.83-59.67-29.11 55.01-25.83z" fill="#a1a8b4"/><path d="m666.68 1012.36-50 23.47-48.49-23.65 49.99-23.47z" fill="#a1a8b4"/><path d="m315.88 841.26-51.76 24.31-48.49-23.65 51.76-24.3z" fill="#a1a8b4"/><path d="m12.3 911.43 83.23 43.93 48.25-17.06 35.86 17.06-10.57 28.74 40.52 15.85 48.88-26.42 5.72-27.75 57.25-38.31-39.41-17.17 13.43-38.76-93.36-35.22z" fill="#8b9dbb"/><path d="m315.27 999.95 42.94-33.03 36.11-4.62 123.52 11.23 33.03 60.33-122.2 78.38-79.93-37.43-6.16-37.54z" fill="#8b9dbb"/><path d="m696.65 961.42-94.65 14.32-.54.09-15.35 2.32-8.23 22.94-.14.4-10.35 28.84-26.89-15.41-37.09-21.26-1.94-1.11-21.28-12.2-13.84-11.5-14.78-12.28 4.89-7.08.17-.26 11.62-16.83 7.32-10.62 12.19-20.98 9.17-15.79 8.75-1.12 13.3-1.7 14.06-1.8 146.95 72.78.34.17z" fill="#8b9dbb"/><path d="m282.03 818.74 21.36-36.77 36.11-4.63 163.61 81.03-75.54 32.37-96.22 9.02-44.7-22.45 23.12-20.92z" fill="#8b9dbb"/><g clip-path="url(#b)"><g clip-path="url(#g)"><path d="m319.54 740.5.17 52.68-51.84 24.34-.17-52.68z" fill="#4e5869"/><path d="m315.49 788.48.17 52.69-48.49-23.65-.17-52.69z" fill="#7c8ca7"/><path d="m264.08 812.62.17 52.68-48.5-23.31-.16-52.69z" fill="#7c8ca7"/><path d="m316.2 788.49.16 52.68-51.76 24.3-.16-52.68z" fill="#4e5869"/><path d="m518.84 837.7.17 52.69-199.3-97.21-.17-52.68z" fill="#7c8ca7"/><path d="m317.14 838.83.17 52.69-53.41-26.05-.17-52.69z" fill="#7c8ca7"/><path d="m317.84 838.84.17 52.68-44.61 20.95-.16-52.69z" fill="#4e5869"/><path d="m449.8 870.45.16 52.68-38.98-18.67-.17-52.68z" fill="#7c8ca7"/><path d="m519.54 837.71.17 52.68-69.75 32.74-.16-52.68z" fill="#4e5869"/><path d="m215.59 789.3.16 52.69-213.86 100.4-.17-52.68z" fill="#4e5869"/><path d="m718.5 935.08.17 52.69-199.31-97.21-.17-52.69z" fill="#7c8ca7"/><path d="m319.55 740.16 200 97.54-69.75 32.75-39-18.68-78.82 37-59.47-29 44.62-20.95-53.41-26.05 51.76-24.3-48.48-23.64zm129.9 130.12 69.39-32.58-199.3-97.2-51.84 24.33 48.5 23.66-51.77 24.3 53.41 26.05-44.6 20.94 58.76 28.66 78.82-37 38.63 18.85" fill="#657288"/><path d="m331.99 888.78.17 52.69-59.47-29.01-.17-52.68z" fill="#7c8ca7"/><path d="m410.81 851.78.16 52.68-78.81 37.01-.17-52.69z" fill="#4e5869"/><path d="m487.72 889.29.16 52.68-38.62-18.84-.17-52.68z" fill="#7c8ca7"/><path d="m331.99 888.78.17 52.69-29.15 13.68-.16-52.69z" fill="#4e5869"/><path d="m312.18 907.4.17 52.69-10.04-4.95-.17-52.68z" fill="#7c8ca7"/><path d="m488.43 889.29.17 52.69-78.82 37-.17-52.69z" fill="#4e5869"/><path d="m84.72 930.53.16 52.68-83.69-40.82-.17-52.68z" fill="#7c8ca7"/><path d="m139.74 904.7.16 52.68-55.02 25.83-.16-52.68z" fill="#4e5869"/><path d="m199.05 933.63.17 52.68-59.32-28.93-.16-52.68z" fill="#7c8ca7"/><path d="m409.19 926.43.17 52.69-29.55 13.87-.17-52.68z" fill="#4e5869"/><path d="m379.64 940.31.17 52.68-10.04-4.89-.17-52.69z" fill="#7c8ca7"/><path d="m312.89 907.41.17 52.69-85.04 39.92-.17-52.69z" fill="#4e5869"/><path d="m547.84 951.35.17 52.69-34.84-16.99-.17-52.69z" fill="#7c8ca7"/><path d="m547.84 951.35.17 52.69-34.84-16.99-.17-52.69z" fill="#7c8ca7"/><path d="m468.39 955.31.17 52.68-59.5-29.01-.16-52.69z" fill="#7c8ca7"/><path d="m513 934.36.17 52.69-44.61 20.94-.17-52.68z" fill="#4e5869"/><path d="m468.39 955.31.17 52.68-59.2-28.87-.17-52.69z" fill="#7c8ca7"/><path d="m199.76 933.63.16 52.69-55.01 25.82-.17-52.68z" fill="#4e5869"/><path d="m618.16 936.1.17 52.69-49.66 23.3-.17-52.69z" fill="#4e5869"/><path d="m666.66 959.76.17 52.68-48.5-23.65-.17-52.69z" fill="#7c8ca7"/><path d="m719.21 935.09.16 52.68-52.54 24.67-.17-52.68z" fill="#4e5869"/><path d="m312.18 907.4-10.04-4.94 29.5-13.85.35.17-29.14 13.68 10.04 4.95-85.04 39.92 28.18 13.75-.35.17-28.54-13.92z" fill="#657288"/><path d="m256.03 961.08.17 52.69-.36.16-.16-52.68z" fill="#4e5869"/><path d="m255.68 961.25.16 52.68-28.53-13.92-.17-52.68z" fill="#7c8ca7"/><g fill="#4e5869"><path d="m547.84 951.35.17 52.69-44.5 20.89-.17-52.69z"/><path d="m548.54 951.36.17 52.68-44.5 20.89-.16-52.68z"/><path d="m369.6 935.41.17 52.69-85.04 39.92-.17-52.69z"/></g><path d="m284.56 975.33.17 52.69-28.53-13.92-.17-52.68z" fill="#7c8ca7"/><path d="m616.3 983.06.16 52.68-48.5-23.65-.17-52.69z" fill="#7c8ca7"/><path d="m144.74 959.46 56.28 27.45-56.99-27.45 55.02-25.83-59.31-28.93-55.02 25.83-83.7-40.82 214.58-100.74 48.48 23.65-48.49-23.32-213.87 100.41 83 40.48 55.02-25.83 60.02 29.27z" fill="#657288"/><path d="m201.02 986.91.17 52.68-56.99-27.45-.17-52.68z" fill="#7c8ca7"/><path d="m256.03 961.42.17 52.68-54.66 25.67-.17-52.69z" fill="#4e5869"/><path d="m570.39 1004.94.16 52.69-67.04-32.7-.17-52.69z" fill="#7c8ca7"/><path d="m569.92 1004.83.17 52.69-66.7-32.54-.16-52.68z" fill="#7c8ca7"/><path d="m719.21 935.09-52.55 24.67-48.5-23.66-49.66 23.3 48.5 23.66-46.61 21.88-67.05-32.7 44.5-20.89-34.84-16.99-44.61 20.95-59.49-29.02 78.82-37-38.63-18.84 39.34 18.84-78.82 37 58.79 28.68 44.61-20.95 35.53 17.34-44.49 20.89 66.34 32.36 45.91-21.55-48.51-23.66 50.38-23.64 48.5 23.66 51.83-24.34-199.31-97.21z" fill="#657288"/><path d="m617 983.06.17 52.68-46.62 21.89-.16-52.69z" fill="#4e5869"/><path d="m257.61 1014.85.16 52.68-56.59-27.6-.17-52.68z" fill="#7c8ca7"/><path d="m312.62 989.02.17 52.68-55.02 25.83-.16-52.68z" fill="#4e5869"/><path d="m371.95 1017.96.17 52.68-59.33-28.94-.17-52.68z" fill="#7c8ca7"/><path d="m372.65 1017.96.17 52.68-55.01 25.83-.17-52.68z" fill="#4e5869"/><path d="m547.84 951.35-44.5 20.89 67.05 32.7-169.73 79.68-83.73-40.83 55.02-25.83-59.33-28.94-55.01 25.83-56.6-27.6 55.02-26.17 28.54 13.92 85.04-39.93 10.03 4.9 29.56-13.88 59.19 29.22-59.2-28.88-29.55 13.88-10.04-4.9-85.04 39.92-28.53-13.91-54.66 25.66 56.24 27.43 55.02-25.83 60.02 29.28-55.01 25.83 83.03 40.5 169.25-79.46-66.69-32.53 44.61-20.95-34.84-16.99z" fill="#657288"/><path d="m570.39 1004.94.16 52.69-169.72 79.68-.17-52.69z" fill="#4e5869"/><path d="m400.66 1084.63.17 52.68-83.73-40.84-.17-52.68z" fill="#7c8ca7"/></g></g><path d="m199.28 933.69-55.01 25.83-59.65-29.1 55.02-25.82z" fill="#a1a8b4"/><path d="m372.18 1018.01-55.01 25.83-59.67-29.1 55.02-25.83z" fill="#a1a8b4"/><path d="m666.52 959.64-50 23.47-48.49-23.65 50-23.47z" fill="#a1a8b4"/><path d="m315.73 788.54-51.77 24.31-48.49-23.66 51.76-24.3z" fill="#a1a8b4"/><path d="m12.15 858.71 83.23 43.93 48.25-17.06 35.86 17.06-10.57 28.73 40.51 15.86 48.88-26.43 5.73-27.74 57.25-38.31-39.42-17.17 13.43-38.76-93.35-35.23z" fill="#8b9dbb"/><path d="m315.12 947.23 42.94-33.03 36.11-4.62 123.52 11.22 33.03 60.33-122.21 78.39-79.92-37.43-6.17-37.54z" fill="#8b9dbb"/><path d="m696.5 908.7-94.65 14.32-.55.09-15.34 2.32-8.23 22.94-.14.4-10.35 28.84-26.89-15.41-37.1-21.26-1.94-1.11-21.27-12.2-13.85-11.5-14.77-12.28 4.89-7.08.17-.26 11.62-16.83 7.32-10.62 12.19-20.98 9.16-15.79 8.75-1.12 13.31-1.7 14.05-1.8 146.96 72.78.33.17z" fill="#8b9dbb"/><path d="m281.87 766.02 21.36-36.77 36.11-4.63 163.61 81.03-75.54 32.37-96.22 9.02-44.69-22.46 23.12-20.91z" fill="#8b9dbb"/><g clip-path="url(#b)"><g clip-path="url(#h)"><path d="m319.39 687.78.17 52.68-51.84 24.34-.17-52.69z" fill="#4e5869"/><path d="m315.34 735.76.16 52.69-48.49-23.65-.17-52.69z" fill="#7c8ca7"/><path d="m263.93 759.9.17 52.68-48.5-23.31-.17-52.69z" fill="#7c8ca7"/><path d="m316.04 735.77.17 52.68-51.76 24.3-.17-52.68z" fill="#4e5869"/><path d="m518.69 784.98.17 52.69-199.3-97.21-.17-52.68z" fill="#7c8ca7"/><path d="m316.98 786.11.17 52.69-53.41-26.05-.17-52.69z" fill="#7c8ca7"/><path d="m317.69 786.12.17 52.68-44.62 20.95-.16-52.69z" fill="#4e5869"/><path d="m449.64 817.73.17 52.68-38.99-18.67-.17-52.68z" fill="#7c8ca7"/><path d="m519.39 784.98.17 52.69-69.75 32.74-.17-52.68z" fill="#4e5869"/><path d="m215.43 736.58.17 52.69-213.86 100.4-.17-52.68z" fill="#4e5869"/><path d="m718.35 882.36.16 52.69-199.31-97.21-.17-52.69z" fill="#7c8ca7"/><path d="m319.39 687.44 200 97.54-69.75 32.75-39-18.68-78.82 37-59.46-29 44.64-20.94-53.41-26.05 51.77-24.3-48.5-23.65zm129.91 130.12 69.39-32.56-199.3-97.2-51.84 24.33 48.45 23.63-51.76 24.31 53.41 26-44.61 20.94 58.76 28.66 78.82-37 38.64 18.85" fill="#657288"/><path d="m331.83 836.06.17 52.69-59.46-29.01-.17-52.68z" fill="#7c8ca7"/><path d="m410.65 799.06.17 52.68-78.82 37.01-.17-52.69z" fill="#4e5869"/><path d="m487.56 836.57.17 52.68-38.62-18.84-.17-52.68z" fill="#7c8ca7"/><path d="m331.83 836.06.17 52.69-29.14 13.68-.17-52.69z" fill="#4e5869"/><path d="m312.03 854.68.17 52.69-10.05-4.95-.16-52.68z" fill="#7c8ca7"/><path d="m488.27 836.57.17 52.68-78.83 37.01-.17-52.69z" fill="#4e5869"/><path d="m84.56 877.81.17 52.69-83.71-40.83-.16-52.69z" fill="#7c8ca7"/><path d="m139.58 851.98.16 52.69-55.01 25.82-.17-52.68z" fill="#4e5869"/><path d="m198.89 880.91.17 52.69-59.32-28.93-.16-52.69z" fill="#7c8ca7"/><path d="m409.04 873.71.17 52.69-29.55 13.87-.17-52.68z" fill="#4e5869"/><path d="m379.49 887.59.17 52.68-10.05-4.9-.17-52.68z" fill="#7c8ca7"/><path d="m312.74 854.69.16 52.69-85.04 39.92-.16-52.69z" fill="#4e5869"/><g fill="#7c8ca7"><path d="m547.68 898.63.17 52.69-34.83-16.99-.17-52.69z"/><path d="m547.68 898.63.17 52.69-34.83-16.99-.17-52.69z"/><path d="m468.24 902.59.16 52.68-59.19-28.87-.17-52.69z"/><path d="m468.24 902.59.16 52.68-59.49-29.01-.17-52.69z"/></g><path d="m512.85 881.64.17 52.69-44.61 20.94-.17-52.68z" fill="#4e5869"/><path d="m199.6 880.91.17 52.69-55.02 25.83-.16-52.69z" fill="#4e5869"/><path d="m618 883.38.17 52.69-49.65 23.3-.17-52.69z" fill="#4e5869"/><path d="m666.5 907.04.17 52.68-48.5-23.65-.17-52.69z" fill="#7c8ca7"/><path d="m719.05 882.37.17 52.68-52.55 24.67-.17-52.68z" fill="#4e5869"/><path d="m312.03 854.68-10.04-4.94 29.49-13.85.35.17-29.14 13.68 10.05 4.95-85.05 39.92 28.19 13.75-.36.17-28.54-13.92z" fill="#657288"/><path d="m255.88 908.36.17 52.68-.37.17-.16-52.68z" fill="#4e5869"/><path d="m255.52 908.53.16 52.69-28.53-13.92-.17-52.69z" fill="#7c8ca7"/><path d="m547.68 898.63.17 52.69-44.5 20.89-.16-52.69z" fill="#4e5869"/><path d="m548.38 898.63.17 52.69-44.5 20.89-.16-52.69z" fill="#4e5869"/><path d="m369.44 882.69.17 52.68-85.05 39.93-.16-52.69z" fill="#4e5869"/><path d="m284.4 922.61.16 52.69-28.52-13.92-.17-52.68z" fill="#7c8ca7"/><path d="m616.13 930.34.17 52.68-48.5-23.65-.17-52.69z" fill="#7c8ca7"/><path d="m144.59 906.74 56.27 27.45-56.99-27.45 55.02-25.83-59.31-28.93-55.02 25.83-83.7-40.83 214.58-100.74 48.49 23.66-48.5-23.32-213.86 100.41 83 40.48 55.02-25.83 60.01 29.27z" fill="#657288"/><path d="m200.86 934.19.17 52.68-56.99-27.45-.17-52.68z" fill="#7c8ca7"/><path d="m255.87 908.7.17 52.69-54.66 25.65-.16-52.68z" fill="#4e5869"/><path d="m570.23 952.22.17 52.69-67.05-32.7-.16-52.69z" fill="#7c8ca7"/><path d="m569.76 952.11.17 52.68-66.69-32.53-.17-52.68z" fill="#7c8ca7"/><path d="m371.79 965.24.16 52.68-59.32-28.93-.17-52.69z" fill="#7c8ca7"/><path d="m372.5 965.24.17 52.68-55.02 25.83-.17-52.68z" fill="#4e5869"/><path d="m547.68 898.63-44.49 20.89 67.04 32.7-169.73 79.68-83.73-40.84 55.02-25.82-59.33-28.94-55.02 25.83-56.59-27.6 55.03-26.17 28.53 13.92 85.04-39.93 10.04 4.9 29.55-13.87 59.2 29.21-59.2-28.88-29.55 13.88-10.05-4.9-85.04 39.92-28.53-13.91-54.65 25.66 56.24 27.43 55.01-25.83 60.03 29.28-55.02 25.83 83.03 40.49 169.25-79.45-66.69-32.53 44.61-20.95-34.83-16.99z" fill="#657288"/><path d="m719.05 882.37-52.55 24.67-48.5-23.66-49.65 23.3 48.5 23.66-46.62 21.88-67.04-32.7 44.49-20.89-34.83-16.99-44.61 20.95-59.5-29.02 78.82-37-38.62-18.84 39.33 18.84-78.83 37 58.8 28.68 44.61-20.95 35.53 17.33-44.49 20.89 66.34 32.36 45.9-21.54-48.5-23.66 50.38-23.64 48.5 23.66 51.84-24.34-199.32-97.21z" fill="#657288"/><path d="m616.85 930.34.16 52.68-46.61 21.89-.17-52.69z" fill="#4e5869"/><path d="m257.44 962.13.17 52.69-56.59-27.61-.17-52.68z" fill="#7c8ca7"/><path d="m312.46 936.3.17 52.69-55.02 25.83-.17-52.69z" fill="#4e5869"/><path d="m570.23 952.22.17 52.69-169.73 79.68-.17-52.69z" fill="#4e5869"/><path d="m400.5 1031.9.17 52.69-83.73-40.84-.17-52.69z" fill="#7c8ca7"/></g></g><path d="m199.12 880.92-55.02 25.83-59.64-29.1 55.01-25.82z" fill="#a1a8b4"/><path d="m372.02 965.25-55.02 25.82-59.67-29.1 55.02-25.83z" fill="#a1a8b4"/><path d="m666.37 906.87-50.01 23.47-48.49-23.65 50-23.48z" fill="#a1a8b4"/><path d="m315.57 735.77-51.77 24.3-48.49-23.65 51.76-24.3z" fill="#a1a8b4"/><path d="m11.98 805.94 83.23 43.93 48.25-17.07 35.86 17.07-10.57 28.73 40.52 15.86 48.88-26.43 5.72-27.74 57.25-38.31-39.41-17.18 13.43-38.75-93.36-35.23z" fill="#8b9dbb"/><path d="m314.96 894.46 42.93-33.03 36.11-4.63 123.52 11.23 33.03 60.33-122.2 78.39-79.93-37.43-6.16-37.54z" fill="#8b9dbb"/><path d="m696.33 855.93-94.65 14.32-.54.09-15.35 2.32-8.23 22.94-.14.4-10.35 28.84-26.89-15.41-37.09-21.26-1.94-1.11-21.28-12.2-13.84-11.5-14.78-12.28 4.89-7.08.17-.26 11.62-16.83 7.32-10.62 12.19-20.98 9.17-15.79 8.75-1.12 13.3-1.7 14.06-1.8 146.95 72.78.34.17z" fill="#8b9dbb"/><path d="m281.71 713.25 21.36-36.77 36.11-4.63 163.61 81.03-75.54 32.37-96.22 9.02-44.7-22.45 23.12-20.92z" fill="#8b9dbb"/><g clip-path="url(#b)"><g clip-path="url(#i)"><path d="m319.22 635.01.17 52.68-51.84 24.34-.16-52.69z" fill="#4e5869"/><path d="m315.17 682.99.16 52.69-48.49-23.66-.17-52.68z" fill="#7c8ca7"/><path d="m263.76 707.13.17 52.68-48.5-23.31-.17-52.69z" fill="#7c8ca7"/><path d="m315.87 682.99.17 52.68-51.77 24.31-.17-52.69z" fill="#4e5869"/><path d="m518.51 732.21.17 52.68-199.29-97.2-.17-52.68z" fill="#7c8ca7"/><path d="m316.81 733.34.17 52.69-53.41-26.05-.17-52.69z" fill="#7c8ca7"/><path d="m317.52 733.35.17 52.68-44.61 20.94-.17-52.68z" fill="#4e5869"/><path d="m449.47 764.96.17 52.68-38.99-18.68-.17-52.68z" fill="#7c8ca7"/><path d="m519.22 732.21.17 52.69-69.75 32.74-.17-52.68z" fill="#4e5869"/><path d="m215.26 683.81.17 52.69-213.86 100.4-.17-52.69z" fill="#4e5869"/><path d="m319.23 634.66 200 97.55-69.76 32.79-39-18.67-78.82 37-59.46-29 44.61-20.94-53.4-26.1 51.77-24.29-48.5-23.65zm129.89 130.12 69.39-32.57-199.29-97.21-51.83 24.34 48.48 23.66-51.77 24.3 53.42 26.05-44.61 20.95 58.76 28.65 78.82-37 38.63 18.84" fill="#657288"/><path d="m331.66 783.28.16 52.69-59.45-29-.17-52.69z" fill="#7c8ca7"/><path d="m331.66 783.28.16 52.69-29.13 13.68-.17-52.69z" fill="#4e5869"/><path d="m311.86 801.91.17 52.69-10.05-4.95-.17-52.69z" fill="#7c8ca7"/><path d="m312.57 801.92.16 52.68-85.04 39.93-.16-52.69z" fill="#4e5869"/><path d="m311.86 801.91-10.05-4.95 29.5-13.84.35.16-29.14 13.68 10.05 4.96-85.04 39.92 28.18 13.75-.36.16-28.53-13.91z" fill="#657288"/><path d="m410.48 746.28.17 52.69-78.83 37-.16-52.69z" fill="#4e5869"/><path d="m487.4 783.79.17 52.69-38.63-18.84-.17-52.69z" fill="#7c8ca7"/><path d="m488.1 783.79.16 52.69-78.81 37-.17-52.68z" fill="#4e5869"/><path d="m84.39 825.03.17 52.69-83.7-40.83-.17-52.68z" fill="#7c8ca7"/><path d="m139.41 799.2.16 52.69-55.01 25.83-.17-52.69z" fill="#4e5869"/><path d="m198.72 828.13.17 52.69-59.32-28.93-.16-52.69z" fill="#7c8ca7"/><path d="m718.18 829.59.16 52.69-199.31-97.21-.17-52.69z" fill="#7c8ca7"/><path d="m468.06 849.81.17 52.69-59.49-29.01-.17-52.69z" fill="#7c8ca7"/><path d="m408.86 820.94.17 52.69-29.55 13.87-.17-52.69z" fill="#4e5869"/><path d="m379.31 834.81.17 52.69-10.04-4.9-.17-52.68z" fill="#7c8ca7"/><path d="m547.51 845.86.17 52.69-34.84-17-.17-52.68z" fill="#7c8ca7"/><path d="m547.51 845.86.17 52.69-34.84-17-.17-52.68z" fill="#7c8ca7"/><path d="m512.67 828.87.17 52.68-44.61 20.95-.17-52.69z" fill="#4e5869"/><path d="m468.06 849.81.17 52.69-59.2-28.87-.17-52.69z" fill="#7c8ca7"/><path d="m199.43 828.14.16 52.68-55.01 25.83-.17-52.69z" fill="#4e5869"/><path d="m617.83 830.61.17 52.69-49.66 23.29-.17-52.68z" fill="#4e5869"/><path d="m666.33 854.26.17 52.69-48.5-23.65-.17-52.69z" fill="#7c8ca7"/><path d="m718.88 829.59.17 52.69-52.55 24.67-.17-52.69z" fill="#4e5869"/><path d="m255.71 855.59.17 52.68-.36.17-.17-52.69z" fill="#4e5869"/><path d="m255.35 855.75.17 52.69-28.53-13.92-.17-52.68z" fill="#7c8ca7"/><g fill="#4e5869"><path d="m547.51 845.86.17 52.69-44.5 20.89-.16-52.69z"/><path d="m548.21 845.86.17 52.69-44.49 20.89-.17-52.69z"/><path d="m369.27 829.91.17 52.69-85.04 39.92-.17-52.68z"/></g><path d="m284.23 869.84.17 52.69-28.53-13.92-.17-52.69z" fill="#7c8ca7"/><path d="m615.97 877.56.17 52.69-48.5-23.66-.17-52.69z" fill="#7c8ca7"/><path d="m144.41 853.96 56.28 27.45-56.98-27.45 55.01-25.83-59.31-28.93-55.02 25.83-83.7-40.82 214.57-100.74 48.5 23.66-48.5-23.32-213.86 100.4 83 40.49 55.01-25.83 60.02 29.27z" fill="#657288"/><path d="m200.69 881.41.17 52.69-56.98-27.45-.17-52.69z" fill="#7c8ca7"/><path d="m255.7 855.92.17 52.69-54.66 25.66-.17-52.69z" fill="#4e5869"/><path d="m570.06 899.45.17 52.69-67.04-32.7-.17-52.69z" fill="#7c8ca7"/><path d="m569.59 899.33.17 52.69-66.69-32.53-.17-52.69z" fill="#7c8ca7"/><path d="m718.88 829.59-52.55 24.67-48.5-23.65-49.66 23.3 48.51 23.66-46.62 21.88-67.04-32.7 44.49-20.89-34.84-16.99-44.61 20.94-59.49-29.01 78.83-37.01-38.63-18.84 39.33 18.84-78.82 37.01 58.8 28.67 44.6-20.94 35.53 17.33-44.49 20.89 66.35 32.36 45.9-21.55-48.5-23.66 50.37-23.63 48.5 23.65 51.83-24.33-199.31-97.21z" fill="#657288"/><path d="m616.68 877.57.17 52.68-46.62 21.89-.17-52.69z" fill="#4e5869"/><path d="m257.28 909.35.17 52.69-56.6-27.6-.17-52.69z" fill="#7c8ca7"/><path d="m312.3 883.53.16 52.68-55.01 25.83-.17-52.69z" fill="#4e5869"/><path d="m371.62 912.46.17 52.69-59.33-28.94-.16-52.68z" fill="#7c8ca7"/><path d="m372.33 912.47.17 52.68-55.02 25.83-.17-52.69z" fill="#4e5869"/><path d="m547.51 845.86-44.49 20.89 67.04 32.7-169.72 79.68-83.73-40.84 55.01-25.83-59.32-28.93-55.02 25.82-56.6-27.6 55.03-26.16 28.53 13.91 85.04-39.92 10.04 4.9 29.56-13.88 59.18 29.21-59.2-28.87-29.55 13.87-10.04-4.9-85.04 39.93-28.53-13.92-54.66 25.66 56.24 27.44 55.02-25.83 60.03 29.28-55.02 25.82 83.03 40.5 169.25-79.46-66.69-32.53 44.61-20.94-34.84-16.99z" fill="#657288"/><path d="m570.06 899.45.17 52.69-169.72 79.68-.17-52.69z" fill="#4e5869"/><path d="m400.34 979.13.17 52.69-83.74-40.84-.16-52.69z" fill="#7c8ca7"/></g></g><path d="m198.81 828.14-55.01 25.83-59.65-29.09 55.02-25.83z" fill="#a1a8b4"/><path d="m371.71 912.47-55.02 25.83-59.67-29.11 55.02-25.82z" fill="#a1a8b4"/><path d="m666.06 854.09-50.01 23.48-48.49-23.66 50-23.47z" fill="#a1a8b4"/><path d="m315.26 682.99-51.76 24.3-48.49-23.65 51.76-24.3z" fill="#a1a8b4"/><path d="m19 753.42 78.39 38.31 48.88-15.85 29.94 20.26-22.02 25.54 50.65 23.34 44.91-27.75-19.37-16.29 76.62-38.75-22.02-23.34 9.69-33.47-22.9-15.85-54.96 16.29-49.69-20.25z" fill="#8b9dbb"/><path d="m216.81 849.86 45.27-17.17h39.64l116.69-40.96 59.96 29.07 32.96-15.85 22.02 10.12-24.22 29.95 62.09 30.38-177.2 76.19-67.2-42.28 35.23-20.26-51.53-29.94-58.01 26.86z" fill="#8b9dbb"/><path d="m463.33 734.05 62.97-17.62 169.55 86.75-33.47 20.26-61.21-18.94-32.15 16.74 33.03 22.9-40.52 18.05-50.2-18.93 32.15-33.03-28.62-17.18-42.28 32.15-43.16-18.05 52.85-49.32z" fill="#8b9dbb"/><path d="m173.57 679.44 80.59 26.86 32.59-19.37 14.97 22.45-16.74 23.35 36.55 12.77 93.49-25.99 37.3 8.81 59.01-29.44-201.69-90.78-23.33 25.1 18.1 22.49-46.73 21.11-49.32-19.82z" fill="#8b9dbb"/><g clip-path="url(#b)"><g clip-path="url(#j)"><path d="m319.08 582.3.16 52.69-51.83 24.33-.17-52.69z" fill="#4e5869"/><path d="m315.02 630.28.17 52.69-48.49-23.65-.17-52.69z" fill="#7c8ca7"/><path d="m215.12 631.11.17 52.68-44.26 20.78-.16-52.69z" fill="#4e5869"/><path d="m263.61 654.75.16 52.69-48.48-23.65-.17-52.68z" fill="#7c8ca7"/><path d="m315.73 630.28.17 52.69-52.13 24.47-.16-52.69z" fill="#4e5869"/><path d="m518.38 679.5.16 52.69-199.3-97.2-.16-52.69z" fill="#7c8ca7"/><path d="m316.67 680.63.17 52.69-34.96-17.05-.17-52.69z" fill="#7c8ca7"/><path d="m281.71 663.58.17 52.69-44.61 20.94-.17-52.69z" fill="#4e5869"/><path d="m237.1 684.52.17 52.69-66.94-32.65-.17-52.68z" fill="#7c8ca7"/><path d="m317.38 680.64.17 52.68-44.61 20.95-.17-52.69z" fill="#4e5869"/><path d="m449.34 712.25.16 52.68-38.99-18.67-.16-52.68z" fill="#7c8ca7"/><path d="m519.08 679.5.17 52.69-69.75 32.74-.16-52.68z" fill="#4e5869"/><path d="m170.16 651.88.17 52.68-168.9 79.63-.17-52.69z" fill="#4e5869"/><path d="m331.53 730.58.17 52.69-59.47-29.01-.17-52.68z" fill="#7c8ca7"/><path d="m319.08 582 200 97.54-69.74 32.75-39-18.68-78.82 37-59.47-29 44.61-20.94-35-17-44.56 20.85-66.94-32.65 45-21.11 48.49 23.65 51.35-24.13-48.49-23.65zm129.92 130.08 69.39-32.58-199.32-97.2-51.83 24.33 48.49 23.65-52.12 24.47-48.49-23.65-44.25 20.78 66.23 32.3 44.62-20.94 35.66 17.4-44.61 20.94 58.76 28.66 78.82-37z" fill="#657288"/><path d="m410.35 693.58.16 52.68-78.81 37-.17-52.68z" fill="#4e5869"/><path d="m487.25 731.09.17 52.68-38.62-18.84-.17-52.68z" fill="#7c8ca7"/><path d="m331.53 730.58.17 52.69-29.15 13.68-.17-52.69z" fill="#4e5869"/><path d="m311.72 749.21.16 52.68-10.03-4.95-.17-52.68z" fill="#7c8ca7"/><path d="m487.96 731.09.17 52.68-78.83 37.01-.16-52.69z" fill="#4e5869"/><path d="m139.26 746.5.17 52.68-55.01 25.83-.17-52.68z" fill="#4e5869"/><g fill="#7c8ca7"><path d="m84.25 772.33.17 52.68-83.7-40.82-.17-52.69z"/><path d="m198.58 775.43.17 52.69-59.32-28.94-.17-52.68z"/><path d="m718.03 776.88.17 52.69-199.31-97.21-.17-52.69z"/><path d="m379.18 782.11.16 52.69-10.04-4.9-.17-52.69z"/></g><path d="m408.73 768.23.17 52.69-29.56 13.87-.16-52.68z" fill="#4e5869"/><path d="m312.43 749.21.17 52.69-85.04 39.92-.17-52.69z" fill="#4e5869"/><path d="m547.37 793.15.17 52.69-34.83-16.99-.17-52.69z" fill="#7c8ca7"/><path d="m547.37 793.15.17 52.69-34.83-16.99-.17-52.69z" fill="#7c8ca7"/><path d="m512.54 776.16.17 52.69-44.61 20.94-.17-52.68z" fill="#4e5869"/><path d="m467.93 797.11.17 52.68-59.2-28.87-.17-52.69z" fill="#7c8ca7"/><path d="m467.93 797.11.17 52.68-59.49-29.01-.17-52.69z" fill="#7c8ca7"/><path d="m199.29 775.43.17 52.69-55.02 25.82-.17-52.68z" fill="#4e5869"/><path d="m617.7 777.9.17 52.69-49.66 23.3-.17-52.69z" fill="#4e5869"/><path d="m666.2 801.56.17 52.68-48.5-23.65-.17-52.69z" fill="#7c8ca7"/><path d="m718.75 776.89.16 52.68-52.54 24.67-.17-52.68z" fill="#4e5869"/><path d="m255.21 803.05.17 52.69-28.54-13.92-.16-52.69z" fill="#7c8ca7"/><path d="m311.72 749.21-10.04-4.95 29.5-13.85.35.17-29.15 13.68 10.05 4.95-85.04 39.92 28.18 13.75-.36.17-28.53-13.92z" fill="#657288"/><path d="m255.57 802.88.17 52.69-.36.16-.17-52.68z" fill="#4e5869"/><path d="m547.37 793.15.17 52.69-44.61 20.94-.17-52.68z" fill="#4e5869"/><path d="m548.08 793.15.17 52.69-44.62 20.94-.17-52.68z" fill="#4e5869"/><path d="m284.09 817.13.17 52.69-28.53-13.92-.17-52.68z" fill="#7c8ca7"/><path d="m369.13 777.21.17 52.69-85.04 39.92-.17-52.69z" fill="#4e5869"/><path d="m615.83 824.86.17 52.68-48.5-23.65-.17-52.69z" fill="#7c8ca7"/><path d="m144.27 801.26 56.29 27.45-56.99-27.45 55.01-25.83-59.32-28.93-55.01 25.83-83.7-40.83 169.61-79.62-168.9 79.62 83 40.49 55.02-25.83 60.01 29.27z" fill="#657288"/><path d="m200.56 828.71.16 52.68-56.98-27.45-.17-52.68z" fill="#7c8ca7"/><path d="m255.56 803.22.17 52.69-54.65 25.65-.17-52.68z" fill="#4e5869"/><path d="m569.46 846.63.17 52.68-66.7-32.53-.17-52.68z" fill="#7c8ca7"/><path d="m616.54 824.86.17 52.68-46.73 21.94-.17-52.68z" fill="#4e5869"/><path d="m718.75 776.89-52.55 24.67-48.5-23.66-49.66 23.3 48.5 23.66-46.73 21.94-67.05-32.7 44.61-20.95-34.83-16.99-44.61 20.95-59.49-29.02 78.81-37-38.62-18.84 39.33 18.84-78.82 37 58.79 28.68 44.62-20.94 35.53 17.32-44.62 20.95 66.35 32.36 46.02-21.6-48.5-23.66 50.37-23.64 48.5 23.66 51.83-24.34-199.31-97.21z" fill="#657288"/><path d="m569.81 846.8.17 52.68-67.05-32.7-.17-52.68z" fill="#7c8ca7"/><path d="m312.15 830.82.17 52.69-55.01 25.83-.17-52.69z" fill="#4e5869"/><path d="m257.14 856.65.17 52.69-56.59-27.61-.17-52.68z" fill="#7c8ca7"/><path d="m371.48 859.75.16 52.69-59.32-28.93-.17-52.69z" fill="#7c8ca7"/><path d="m372.19 859.76.17 52.68-55.02 25.83-.16-52.68z" fill="#4e5869"/><path d="m400.2 926.42.17 52.69-83.74-40.84-.17-52.69z" fill="#7c8ca7"/><path d="m547.37 793.15-44.61 20.95 67.05 32.7-169.61 79.62-83.74-40.84 55.02-25.82-59.33-28.94-55.01 25.83-56.59-27.6 55.02-26.17 28.54 13.92 85.03-39.93 10.04 4.9 29.56-13.87 59.19 29.21-59.2-28.88-29.55 13.88-10.05-4.9-85.04 39.92-28.53-13.91-54.65 25.66 56.24 27.43 55.02-25.83 60.02 29.28-55.01 25.83 83.03 40.49 169.25-79.45-66.7-32.53 44.61-20.95-34.83-16.99z" fill="#657288"/><path d="m569.81 846.8.17 52.68-169.61 79.63-.17-52.69z" fill="#4e5869"/></g></g><path d="m198.65 775.44-55.02 25.83-59.64-29.09 55.01-25.83z" fill="#a1a8b4"/><path d="m371.55 859.77-55.01 25.83-59.68-29.11 55.02-25.83z" fill="#a1a8b4"/><path d="m665.89 801.39-50 23.47-48.49-23.65 50-23.47z" fill="#a1a8b4"/><path d="m315.09 630.29-51.76 24.31-48.49-23.65 51.76-24.3z" fill="#a1a8b4"/><path d="m18.84 700.72 78.38 38.31 48.88-15.85 29.95 20.25-22.02 25.55 50.64 23.34 44.92-27.75-19.38-16.29 76.63-38.75-22.02-23.34 9.69-33.47-22.9-15.85-54.97 16.29-49.69-20.26z" fill="#8b9dbb"/><path d="m216.64 797.16 45.28-17.17h39.63l116.7-40.96 59.96 29.07 32.96-15.86 22.02 10.13-24.23 29.95 62.1 30.38-177.21 76.19-67.2-42.28 35.23-20.26-51.52-29.94-58.01 26.86z" fill="#8b9dbb"/><path d="m463.17 681.34 62.97-17.61 169.54 86.75-33.47 20.26-61.21-18.94-32.14 16.74 33.02 22.89-40.51 18.06-50.2-18.94 32.14-33.02-28.62-17.18-42.27 32.15-43.16-18.05 52.84-49.33z" fill="#8b9dbb"/><path d="m173.41 626.74 80.58 26.86 32.59-19.37 14.97 22.45-16.73 23.34 36.55 12.77 93.49-25.98 37.3 8.81 59.01-29.44-201.69-90.78-23.34 25.1 18.11 22.49-46.73 21.11-49.33-19.82z" fill="#8b9dbb"/><g clip-path="url(#b)"><g clip-path="url(#k)"><path d="m318.91 529.6.17 52.68-51.83 24.34-.17-52.69z" fill="#4e5869"/><path d="m314.86 577.58.17 52.69-48.49-23.65-.17-52.69z" fill="#7c8ca7"/><path d="m214.96 578.4.16 52.69-44.25 20.77-.17-52.68z" fill="#4e5869"/><path d="m263.44 602.05.17 52.69-48.49-23.65-.16-52.69z" fill="#7c8ca7"/><path d="m315.57 577.58.16 52.69-52.12 24.47-.17-52.69z" fill="#4e5869"/><path d="m518.21 626.8.16 52.69-199.29-97.21-.17-52.68z" fill="#7c8ca7"/><path d="m316.51 627.93.17 52.69-34.97-17.05-.17-52.69z" fill="#7c8ca7"/><path d="m281.54 610.88.17 52.69-44.62 20.94-.17-52.69z" fill="#4e5869"/><path d="m169.99 599.18.17 52.68-168.9 79.63-.17-52.69z" fill="#4e5869"/><path d="m236.92 631.82.17 52.69-66.93-32.65-.17-52.69z" fill="#7c8ca7"/><path d="m317.21 627.93.17 52.69-44.61 20.94-.17-52.68z" fill="#4e5869"/><path d="m449.17 659.55.16 52.69-38.98-18.68-.17-52.69z" fill="#7c8ca7"/><path d="m518.92 626.8.17 52.69-69.76 32.74-.16-52.68z" fill="#4e5869"/><path d="m331.35 677.88.17 52.68-59.46-29-.17-52.68z" fill="#7c8ca7"/><path d="m318.92 529.25 200 97.55-69.75 32.75-39-18.68-78.83 37-59.46-29 44.62-20.94-35-17-44.62 20.94-66.88-32.7 45-21.11 48.49 23.65 51.4-24.13-48.49-23.65zm129.9 130.12 69.39-32.57-199.3-97.2-51.83 24.33 48.49 23.65-52.13 24.47-48.44-23.65-44.3 20.78 66.24 32.3 44.62-20.94 35.65 17.39-44.61 20.94 58.77 28.67 78.82-37 38.63 18.84" fill="#657288"/><path d="m410.18 640.87.16 52.69-78.82 37-.17-52.68z" fill="#4e5869"/><path d="m487.09 678.38.17 52.69-38.63-18.84-.17-52.69z" fill="#7c8ca7"/><path d="m331.35 677.88.17 52.68-29.14 13.68-.17-52.68z" fill="#4e5869"/><path d="m311.55 696.5.17 52.69-10.04-4.95-.17-52.68z" fill="#7c8ca7"/><path d="m487.79 678.39.17 52.68-78.82 37.01-.17-52.69z" fill="#4e5869"/><path d="m139.1 693.79.17 52.69-55.02 25.83-.17-52.69z" fill="#4e5869"/><g fill="#7c8ca7"><path d="m84.08 719.62.17 52.69-83.69-40.82-.17-52.69z"/><path d="m198.42 722.73.17 52.68-59.32-28.93-.17-52.69z"/><path d="m717.87 724.18.17 52.69-199.31-97.21-.17-52.69z"/><path d="m379.01 729.4.16 52.69-10.04-4.9-.16-52.68z"/><path d="m467.75 744.4.17 52.69-59.2-28.87-.16-52.69z"/><path d="m467.75 744.4.17 52.69-59.49-29.01-.16-52.69z"/></g><path d="m408.56 715.53.16 52.69-29.54 13.87-.17-52.69z" fill="#4e5869"/><path d="m312.25 696.51.17 52.68-85.04 39.93-.17-52.69z" fill="#4e5869"/><path d="m547.21 740.45.17 52.69-34.84-16.99-.17-52.69z" fill="#7c8ca7"/><path d="m547.21 740.45.17 52.69-34.84-16.99-.17-52.69z" fill="#7c8ca7"/><path d="m512.37 723.46.17 52.69-44.62 20.94-.16-52.69z" fill="#4e5869"/><path d="m199.12 722.73.17 52.68-55.02 25.83-.17-52.68z" fill="#4e5869"/><path d="m617.53 725.2.17 52.69-49.67 23.29-.16-52.68z" fill="#4e5869"/><path d="m666.03 748.85.17 52.69-48.5-23.65-.17-52.69z" fill="#7c8ca7"/><path d="m718.58 724.18.16 52.69-52.54 24.67-.17-52.69z" fill="#4e5869"/><path d="m255.05 750.35.17 52.68-28.54-13.91-.17-52.69z" fill="#7c8ca7"/><path d="m311.55 696.5-10.04-4.94 29.5-13.85.34.17-29.14 13.67 10.04 4.96-85.04 39.92 28.19 13.75-.35.17-28.54-13.92z" fill="#657288"/><path d="m255.4 750.18.17 52.69-.35.16-.17-52.68z" fill="#4e5869"/><path d="m547.21 740.45.17 52.69-44.62 20.94-.16-52.68z" fill="#4e5869"/><path d="m547.91 740.45.17 52.69-44.61 20.94-.17-52.68z" fill="#4e5869"/><path d="m283.93 764.43.17 52.69-28.54-13.92-.17-52.69z" fill="#7c8ca7"/><path d="m368.97 724.51.16 52.68-85.03 39.93-.17-52.69z" fill="#4e5869"/><path d="m615.67 772.15.16 52.69-48.5-23.66-.16-52.68z" fill="#7c8ca7"/><path d="m144.1 748.56 56.29 27.45-56.99-27.46 55.02-25.82-59.32-28.94-55.02 25.83-83.69-40.82 169.6-79.62-168.9 79.62 83 40.49 55.02-25.83 60.01 29.27z" fill="#657288"/><path d="m200.39 776.01.16 52.68-56.98-27.45-.17-52.69z" fill="#7c8ca7"/><path d="m255.39 750.51.17 52.69-54.66 25.66-.17-52.68z" fill="#4e5869"/><path d="m569.29 793.92.17 52.69-66.7-32.53-.16-52.68z" fill="#7c8ca7"/><path d="m616.37 772.16.17 52.68-46.73 21.94-.17-52.68z" fill="#4e5869"/><path d="m569.64 794.1.17 52.68-67.05-32.7-.16-52.68z" fill="#7c8ca7"/><path d="m371.31 807.05.17 52.69-59.32-28.94-.17-52.68z" fill="#7c8ca7"/><path d="m372.02 807.06.17 52.69-55.02 25.82-.16-52.68z" fill="#4e5869"/><path d="m547.21 740.45-44.61 20.95 67.04 32.7-169.6 79.62-83.74-40.84 55.01-25.83-59.32-28.93-55.01 25.83-56.6-27.61 55.02-26.16 28.53 13.91 85.05-39.92 10.04 4.9 29.55-13.88 59.18 29.21-59.19-28.87-29.55 13.87-10.04-4.89-85.04 39.92-28.54-13.92-54.66 25.67 56.25 27.43 55.01-25.83 60.03 29.28-55.01 25.83 83.03 40.49 169.25-79.46-66.69-32.52 44.61-20.95-34.84-16.99z" fill="#657288"/><path d="m718.58 724.18-52.55 24.67-48.5-23.65-49.66 23.3 48.5 23.66-46.73 21.94-67.04-32.7 44.61-20.95-34.84-16.99-44.62 20.94-59.48-29.01 78.82-37.01-38.63-18.84 39.33 18.85-78.82 37 58.8 28.68 44.61-20.95 35.53 17.33-44.61 20.95 66.35 32.36 46.02-21.61-48.5-23.65 50.37-23.64 48.5 23.66 51.83-24.34-199.31-97.21z" fill="#657288"/><path d="m311.99 778.12.17 52.68-55.02 25.83-.16-52.68z" fill="#4e5869"/><path d="m256.98 803.95.16 52.68-56.59-27.6-.17-52.69z" fill="#7c8ca7"/><path d="m400.04 873.72.16 52.69-83.73-40.84-.17-52.69z" fill="#7c8ca7"/><path d="m569.64 794.1.17 52.68-169.61 79.63-.16-52.69z" fill="#4e5869"/></g></g><path d="m198.5 722.75-55.02 25.83-59.64-29.09 55.01-25.83z" fill="#a1a8b4"/><path d="m371.39 807.08-55.01 25.83-59.66-29.1 55.01-25.83z" fill="#a1a8b4"/><path d="m665.74 748.7-50 23.47-48.49-23.65 50-23.47z" fill="#a1a8b4"/><path d="m314.95 577.6-51.77 24.31-48.49-23.65 51.76-24.31z" fill="#a1a8b4"/><path d="m18.69 648.03 78.39 38.32 48.88-15.86 29.94 20.26-22.02 25.54 50.64 23.34 44.92-27.74-19.37-16.3 76.62-38.75-22.02-23.34 9.69-33.47-22.9-15.85-54.96 16.29-49.69-20.25z" fill="#8b9dbb"/><path d="m216.5 744.47 45.27-17.17h39.64l116.69-40.95 59.96 29.06 32.96-15.85 22.02 10.12-24.22 29.95 62.09 30.38-177.21 76.19-67.19-42.28 35.23-20.26-51.53-29.94-58.01 26.86z" fill="#8b9dbb"/><path d="m463.02 628.66 62.97-17.62 169.54 86.75-33.46 20.26-61.21-18.93-32.15 16.73 33.03 22.9-40.52 18.05-50.2-18.93 32.15-33.03-28.63-17.18-42.27 32.15-43.16-18.05 52.85-49.32z" fill="#8b9dbb"/><path d="m173.26 574.05 80.59 26.86 32.58-19.37 14.98 22.46-16.74 23.34 36.55 12.77 93.49-25.98 37.3 8.8 59.01-29.43-201.69-90.79-23.34 25.1 18.11 22.49-46.73 21.11-49.32-19.82z" fill="#8b9dbb"/><g clip-path="url(#b)"><g clip-path="url(#l)"><path d="m318.76 476.91.17 52.69-51.83 24.33-.17-52.69z" fill="#4e5869"/><path d="m314.71 524.89.17 52.69-48.49-23.65-.17-52.69z" fill="#7c8ca7"/><path d="m214.81 525.71.16 52.69-44.25 20.77-.17-52.68z" fill="#4e5869"/><path d="m263.3 549.37.17 52.68-48.5-23.65-.16-52.69z" fill="#7c8ca7"/><path d="m315.42 524.89.17 52.69-52.12 24.47-.17-52.68z" fill="#4e5869"/><path d="m518.06 574.11.17 52.69-199.3-97.2-.17-52.69z" fill="#7c8ca7"/><path d="m316.36 575.24.17 52.69-34.96-17.05-.17-52.69z" fill="#7c8ca7"/><path d="m281.4 558.19.17 52.69-44.62 20.94-.16-52.69z" fill="#4e5869"/><path d="m236.79 579.13.16 52.69-66.93-32.65-.17-52.68z" fill="#7c8ca7"/><path d="m317.07 575.25.17 52.68-44.61 20.95-.17-52.69z" fill="#4e5869"/><path d="m449.02 606.86.17 52.68-38.99-18.67-.17-52.69z" fill="#7c8ca7"/><path d="m518.77 574.11.16 52.69-69.74 32.74-.17-52.68z" fill="#4e5869"/><path d="m169.85 546.49.17 52.68-168.91 79.63-.17-52.68z" fill="#4e5869"/><path d="m331.21 625.19.17 52.68-59.46-29-.17-52.68z" fill="#7c8ca7"/><path d="m717.72 671.49.17 52.69-199.31-97.21-.17-52.69z" fill="#7c8ca7"/><path d="m318.78 476.57 200 97.54-69.78 32.74-39-18.67-78.82 37-59.46-29 44.61-20.94-35-17-44.61 20.94-66.94-32.65 45-21.11 48.53 23.58 51.4-24.13-48.49-23.65zm129.9 130.12 69.38-32.58-199.3-97.2-51.83 24.33 48.49 23.65-52.12 24.47-48.49-23.65-44.26 20.78 66.24 32.3 44.62-20.94 35.66 17.39-44.61 21 58.76 28.66 78.82-37 38.64 18.85" fill="#657288"/><path d="m410.03 588.18.17 52.69-78.82 37-.17-52.68z" fill="#4e5869"/><path d="m486.94 625.7.17 52.68-38.62-18.84-.17-52.68z" fill="#7c8ca7"/><path d="m331.21 625.19.17 52.69-29.14 13.68-.17-52.69z" fill="#4e5869"/><path d="m311.41 643.82.17 52.68-10.05-4.95-.16-52.69z" fill="#7c8ca7"/><path d="m487.65 625.7.17 52.68-78.82 37.01-.17-52.69z" fill="#4e5869"/><path d="m138.96 641.11.16 52.68-55.01 25.83-.17-52.68z" fill="#4e5869"/><g fill="#7c8ca7"><path d="m83.94 666.94.17 52.68-83.7-40.82-.17-52.68z"/><path d="m198.27 670.04.17 52.68-59.32-28.93-.16-52.68z"/><path d="m378.86 676.72.17 52.68-10.04-4.89-.17-52.69z"/><path d="m467.62 691.72.17 52.68-59.5-29.02-.17-52.68z"/></g><path d="m408.42 662.84.17 52.69-29.56 13.87-.17-52.68z" fill="#4e5869"/><path d="m312.12 643.82.16 52.68-85.04 39.93-.16-52.69z" fill="#4e5869"/><path d="m547.06 687.76.17 52.69-34.84-16.99-.16-52.69z" fill="#7c8ca7"/><path d="m547.06 687.76.17 52.69-34.84-16.99-.16-52.69z" fill="#7c8ca7"/><path d="m512.22 670.77.17 52.69-44.6 20.94-.17-52.68z" fill="#4e5869"/><path d="m467.62 691.72.17 52.68-59.2-28.87-.17-52.69z" fill="#7c8ca7"/><path d="m198.98 670.04.17 52.69-55.02 25.83-.17-52.69z" fill="#4e5869"/><path d="m617.38 672.51.17 52.69-49.65 23.3-.17-52.69z" fill="#4e5869"/><path d="m665.88 696.17.17 52.68-48.5-23.65-.17-52.69z" fill="#7c8ca7"/><path d="m718.43 671.5.17 52.68-52.55 24.67-.17-52.68z" fill="#4e5869"/><path d="m254.9 697.66.16 52.68-28.52-13.91-.17-52.69z" fill="#7c8ca7"/><path d="m255.26 697.49.17 52.68-.37.17-.16-52.68z" fill="#4e5869"/><path d="m547.06 687.76.17 52.69-44.61 20.94-.17-52.68z" fill="#4e5869"/><path d="m547.77 687.77.17 52.68-44.62 20.95-.16-52.69z" fill="#4e5869"/><path d="m283.78 711.75.17 52.68-28.53-13.92-.17-52.68z" fill="#7c8ca7"/><path d="m368.82 671.82.17 52.69-85.04 39.92-.17-52.68z" fill="#4e5869"/><path d="m615.52 719.47.17 52.68-48.51-23.66-.16-52.68z" fill="#7c8ca7"/><path d="m255.25 697.83.17 52.68-54.66 25.67-.17-52.69z" fill="#4e5869"/><path d="m569.5 741.4.16 52.69-67.04-32.7-.17-52.68z" fill="#7c8ca7"/><path d="m569.15 741.24.17 52.68-66.7-32.53-.17-52.68z" fill="#7c8ca7"/><path d="m371.17 754.37.17 52.68-59.33-28.93-.17-52.69z" fill="#7c8ca7"/><path d="m371.88 754.37.17 52.68-55.03 25.83-.16-52.68z" fill="#4e5869"/><path d="m547.06 687.76-44.61 20.95 67.05 32.69-169.61 79.63-83.73-40.83 55.01-25.83-59.33-28.94-55.02 25.83-56.59-27.6 55.03-26.17 28.53 13.91 85.04-39.92 10.04 4.9 29.55-13.88 59.2 29.22-59.2-28.88-29.56 13.88-10.04-4.9-85.04 39.93-28.53-13.92-54.66 25.66 56.25 27.43 55.01-25.83 60.03 29.28-55.02 25.83 83.03 40.5 169.26-79.46-66.7-32.53 44.61-20.95-34.83-16.99z" fill="#657288"/><path d="m311.41 643.82-10.04-4.96 29.49-13.84.35.17-29.14 13.68 10.05 4.95-85.04 39.92 28.18 13.75-.36.17-28.53-13.92z" fill="#657288"/><path d="m143.96 695.87 56.28 27.45-56.99-27.45 55.02-25.83-59.31-28.93-55.02 25.83-83.7-40.82 169.61-79.63-168.91 79.63 83 40.48 55.02-25.83 60.02 29.27z" fill="#657288"/><path d="m200.24 723.32.16 52.68-56.98-27.45-.17-52.68z" fill="#7c8ca7"/><path d="m616.23 719.47.16 52.68-46.73 21.94-.16-52.69z" fill="#4e5869"/><path d="m718.43 671.5-52.55 24.67-48.5-23.66-49.65 23.3 48.5 23.66-46.73 21.93-67.05-32.69 44.61-20.95-34.84-16.99-44.6 20.95-59.5-29.02 78.82-37-38.62-18.84 39.33 18.84-78.82 37 58.79 28.68 44.61-20.95 35.54 17.34-44.61 20.94 66.34 32.36 46.02-21.6-48.51-23.66 50.38-23.63 48.5 23.65 51.83-24.34-199.31-97.21z" fill="#657288"/><path d="m311.84 725.43.17 52.69-55.02 25.82-.17-52.68z" fill="#4e5869"/><path d="m256.82 751.26.17 52.68-56.59-27.6-.17-52.68z" fill="#7c8ca7"/><path d="m399.89 821.03.16 52.69-83.73-40.84-.16-52.68z" fill="#7c8ca7"/><path d="m569.5 741.4.16 52.69-169.61 79.63-.16-52.69z" fill="#4e5869"/></g></g><path d="m198.37 670.02-55.02 25.82-59.64-29.09 55.01-25.83z" fill="#a1a8b4"/><path d="m371.26 754.34-55.01 25.83-59.67-29.1 55.01-25.83z" fill="#a1a8b4"/><path d="m665.6 695.96-50 23.48-48.49-23.65 50-23.48z" fill="#a1a8b4"/><path d="m314.81 524.87-51.76 24.3-48.5-23.65 51.76-24.3z" fill="#a1a8b4"/><path d="m18.55 595.29 78.39 38.32 48.88-15.86 29.94 20.26-22.02 25.54 50.65 23.34 44.91-27.74-19.37-16.3 76.62-38.75-22.02-23.34 9.69-33.47-22.9-15.85-54.96 16.29-49.69-20.25z" fill="#8b9dbb"/><path d="m216.36 691.73 45.27-17.17h39.64l116.69-40.95 59.96 29.06 32.96-15.85 22.02 10.13-24.22 29.94 62.09 30.38-177.21 76.19-67.19-42.28 35.23-20.25-51.53-29.95-58.01 26.86z" fill="#8b9dbb"/><path d="m462.88 575.92 62.97-17.62 169.54 86.76-33.46 20.25-61.21-18.93-32.15 16.73 33.03 22.9-40.52 18.05-50.2-18.93 32.15-33.03-28.63-17.17-42.27 32.14-43.16-18.05 52.85-49.32z" fill="#8b9dbb"/><path d="m173.12 521.31 80.59 26.86 32.58-19.37 14.98 22.46-16.74 23.34 36.55 12.77 93.49-25.98 37.3 8.8 59.01-29.43-201.69-90.79-23.34 25.1 18.11 22.49-46.73 21.11-49.32-19.82z" fill="#8b9dbb"/><g clip-path="url(#b)"><g clip-path="url(#m)"><path d="m318.63 424.17.16 52.69-51.83 24.33-.17-52.69z" fill="#4e5869"/><path d="m314.57 472.15.17 52.69-48.49-23.65-.17-52.69z" fill="#7c8ca7"/><path d="m214.67 472.98.17 52.68-44.25 20.78-.17-52.69z" fill="#4e5869"/><path d="m263.16 496.62.17 52.69-48.49-23.65-.17-52.68z" fill="#7c8ca7"/><path d="m315.28 472.15.17 52.69-52.12 24.47-.17-52.69z" fill="#4e5869"/><path d="m517.92 521.37.17 52.69-199.3-97.2-.16-52.69z" fill="#7c8ca7"/><path d="m316.22 522.5.17 52.69-34.96-17.05-.17-52.69z" fill="#7c8ca7"/><path d="m281.26 505.45.17 52.69-44.62 20.94-.17-52.69z" fill="#4e5869"/><path d="m236.64 526.39.17 52.69-66.94-32.65-.16-52.68z" fill="#7c8ca7"/><path d="m316.93 522.51.17 52.68-44.61 20.95-.17-52.69z" fill="#4e5869"/><path d="m448.88 554.12.17 52.69-38.99-18.68-.16-52.68z" fill="#7c8ca7"/><path d="m518.63 521.38.17 52.68-69.75 32.75-.17-52.69z" fill="#4e5869"/><path d="m169.71 493.75.16 52.68-168.9 79.63-.16-52.68z" fill="#4e5869"/><path d="m331.07 572.45.17 52.69-59.46-29-.17-52.69z" fill="#7c8ca7"/><path d="m318.63 423.83 200 97.54-69.75 32.75-39-18.68-78.83 37-59.46-29 44.61-21-35-17.05-44.62 20.94-66.88-32.58 45-21.12 48.49 23.65 51.4-24.13-48.51-23.65zm129.9 130.17 69.39-32.58-199.29-97.2-51.84 24.28 48.49 23.65-52.12 24.47-48.49-23.62-44.25 20.78 66.23 32.3 44.62-20.94 35.66 17.4-44.61 20.94 58.76 28.66 78.82-37z" fill="#657288"/><path d="m409.9 535.45.16 52.68-78.82 37.01-.17-52.69z" fill="#4e5869"/><path d="m486.81 572.96.16 52.68-38.63-18.84-.16-52.68z" fill="#7c8ca7"/><path d="m331.07 572.45.17 52.69-29.14 13.68-.16-52.69z" fill="#4e5869"/><path d="m311.27 591.08.17 52.68-10.04-4.95-.17-52.68z" fill="#7c8ca7"/><path d="m487.5 572.96.17 52.69-78.82 37-.16-52.69z" fill="#4e5869"/><path d="m138.81 588.37.17 52.68-55.01 25.83-.17-52.68z" fill="#4e5869"/><g fill="#7c8ca7"><path d="m83.8 614.2.17 52.68-83.7-40.82-.17-52.69z"/><path d="m198.13 617.3.17 52.69-59.32-28.94-.17-52.68z"/><path d="m717.58 618.75.17 52.69-199.31-97.21-.17-52.69z"/><path d="m378.73 623.98.16 52.69-10.04-4.9-.17-52.69z"/></g><path d="m408.28 610.11.16 52.68-29.55 13.87-.16-52.68z" fill="#4e5869"/><path d="m311.97 591.08.17 52.69-85.04 39.92-.17-52.68z" fill="#4e5869"/><path d="m546.92 635.02.17 52.69-34.84-16.99-.17-52.69z" fill="#7c8ca7"/><path d="m546.92 635.02.17 52.69-34.84-16.99-.17-52.69z" fill="#7c8ca7"/><path d="m512.08 618.03.17 52.69-44.61 20.94-.17-52.68z" fill="#4e5869"/><path d="m467.47 638.98.17 52.68-59.2-28.87-.16-52.68z" fill="#7c8ca7"/><path d="m467.47 638.98.17 52.68-59.49-29.01-.17-52.69z" fill="#7c8ca7"/><path d="m198.83 617.3.17 52.69-55.01 25.83-.17-52.69z" fill="#4e5869"/><path d="m617.25 619.77.16 52.69-49.66 23.3-.17-52.69z" fill="#4e5869"/><path d="m665.75 643.43.16 52.68-48.5-23.65-.16-52.69z" fill="#7c8ca7"/><path d="m718.3 618.76.16 52.68-52.54 24.67-.17-52.68z" fill="#4e5869"/><path d="m254.76 644.92.17 52.68-28.53-13.91-.17-52.69z" fill="#7c8ca7"/><path d="m255.12 644.75.16 52.69-.35.17-.17-52.69z" fill="#4e5869"/><path d="m546.92 635.02.17 52.69-44.61 20.95-.17-52.69z" fill="#4e5869"/><path d="m547.63 635.02.17 52.69-44.62 20.94-.17-52.68z" fill="#4e5869"/><path d="m283.64 659 .17 52.69-28.53-13.92-.17-52.68z" fill="#7c8ca7"/><path d="m368.68 619.08.17 52.69-85.04 39.92-.17-52.69z" fill="#4e5869"/><path d="m615.38 666.73.17 52.68-48.5-23.65-.17-52.69z" fill="#7c8ca7"/><path d="m255.11 645.09.16 52.68-54.66 25.66-.16-52.68z" fill="#4e5869"/><path d="m569 688.5.17 52.68-66.69-32.52-.17-52.69z" fill="#7c8ca7"/><path d="m569.35 688.67.17 52.69-67.04-32.7-.17-52.69z" fill="#7c8ca7"/><path d="m371.03 701.63.17 52.68-59.33-28.93-.17-52.69z" fill="#7c8ca7"/><path d="m371.74 701.63.16 52.69-55.01 25.82-.17-52.68z" fill="#4e5869"/><path d="m546.92 635.02-44.61 20.95 67.04 32.7-169.6 79.62-83.74-40.84 55.02-25.82-59.33-28.94-55.01 25.83-56.6-27.61 55.03-26.16 28.53 13.92 85.05-39.93 10.04 4.9 29.54-13.87 59.19 29.21-59.19-28.87-29.55 13.87-10.05-4.9-85.04 39.92-28.53-13.91-54.66 25.66 56.24 27.43 55.02-25.83 60.03 29.28-55.02 25.83 83.03 40.5 169.25-79.46-66.69-32.53 44.61-20.95-34.84-16.99z" fill="#657288"/><path d="m311.27 591.08-10.04-4.95 29.49-13.85.35.17-29.13 13.68 10.03 4.95-85.04 39.93 28.19 13.74-.36.17-28.53-13.92z" fill="#657288"/><path d="m143.82 643.13 56.28 27.45-56.98-27.45 55.01-25.83-59.32-28.93-55.01 25.83-83.7-40.83 169.61-79.62-168.9 79.63 83 40.48 55.01-25.83 60.01 29.27z" fill="#657288"/><path d="m200.1 670.58.17 52.69-56.99-27.46-.16-52.68z" fill="#7c8ca7"/><path d="m616.09 666.73.16 52.69-46.73 21.94-.17-52.69z" fill="#4e5869"/><path d="m718.3 618.76-52.55 24.67-48.5-23.66-49.67 23.3 48.51 23.66-46.74 21.94-67.04-32.7 44.61-20.95-34.84-16.99-44.61 20.95-59.49-29.02 78.83-37-38.63-18.84 39.32 18.84-78.81 37 58.79 28.68 44.62-20.94 35.53 17.32-44.62 20.95 66.35 32.36 46.02-21.6-48.5-23.66 50.37-23.64 48.5 23.66 51.83-24.34-199.31-97.21z" fill="#657288"/><path d="m311.7 672.69.17 52.69-55.01 25.83-.17-52.69z" fill="#4e5869"/><path d="m256.69 698.52.17 52.69-56.6-27.61-.17-52.69z" fill="#7c8ca7"/><path d="m399.75 768.29.17 52.69-83.74-40.84-.17-52.69z" fill="#7c8ca7"/><path d="m569.35 688.67.17 52.69-169.6 79.62-.17-52.69z" fill="#4e5869"/></g></g><path d="m198.26 617.14-55.02 25.83-59.64-29.09 55.02-25.83z" fill="#a1a8b4"/><path d="m371.16 701.47-55.02 25.83-59.67-29.1 55.02-25.83z" fill="#a1a8b4"/><path d="m665.5 643.09-50 23.48-48.49-23.66 50-23.47z" fill="#a1a8b4"/><path d="m314.7 472-51.76 24.3-48.49-23.65 51.76-24.3z" fill="#a1a8b4"/><path d="m18.45 542.42 78.38 38.32 48.88-15.86 29.95 20.26-22.02 25.54 50.64 23.34 44.92-27.74-19.38-16.3 76.63-38.75-22.02-23.34 9.69-33.47-22.9-15.85-54.97 16.29-49.69-20.25z" fill="#8b9dbb"/><path d="m216.25 638.86 45.28-17.17h39.63l116.7-40.95 59.95 29.06 32.97-15.85 22.01 10.13-24.22 29.94 62.1 30.39-177.21 76.18-67.2-42.28 35.23-20.25-51.52-29.95-58.02 26.86z" fill="#8b9dbb"/><path d="m462.78 523.05 62.97-17.62 169.54 86.75-33.47 20.26-61.21-18.93-32.15 16.73 33.03 22.9-40.51 18.06-50.2-18.94 32.14-33.03-28.62-17.17-42.28 32.14-43.15-18.05 52.84-49.32z" fill="#8b9dbb"/><path d="m173.01 468.44 80.59 26.86 32.59-19.37 14.97 22.46-16.73 23.34 36.55 12.77 93.48-25.98 37.31 8.8 59.01-29.43-201.69-90.79-23.34 25.1 18.11 22.49-46.73 21.11-49.33-19.82z" fill="#8b9dbb"/><g clip-path="url(#b)"><g clip-path="url(#n)"><path d="m318.53 371.3.16 52.69-51.83 24.33-.17-52.68z" fill="#4e5869"/><path d="m314.47 419.28.17 52.69-48.49-23.65-.16-52.69z" fill="#7c8ca7"/><path d="m214.57 420.11.17 52.68-44.26 20.78-.17-52.69z" fill="#4e5869"/><path d="m263.06 443.76.17 52.68-48.49-23.65-.17-52.69z" fill="#7c8ca7"/><path d="m315.18 419.29.17 52.69-52.12 24.46-.17-52.68z" fill="#4e5869"/><path d="m517.83 468.5.16 52.69-199.3-97.2-.16-52.69z" fill="#7c8ca7"/><path d="m316.12 469.63.17 52.69-34.96-17.05-.17-52.69z" fill="#7c8ca7"/><path d="m281.16 452.58.17 52.69-44.62 20.94-.17-52.68z" fill="#4e5869"/><path d="m236.54 473.52.17 52.69-66.93-32.64-.17-52.69z" fill="#7c8ca7"/><path d="m316.83 469.64.17 52.69-44.62 20.94-.17-52.69z" fill="#4e5869"/><path d="m448.78 501.25.17 52.69-38.99-18.68-.17-52.68z" fill="#7c8ca7"/><path d="m518.52 468.51.17 52.68-69.74 32.75-.17-52.69z" fill="#4e5869"/><path d="m169.61 440.88.17 52.69-168.9 79.62-.17-52.68z" fill="#4e5869"/><path d="m330.97 519.58.17 52.69-59.46-29-.17-52.69z" fill="#7c8ca7"/><path d="m717.48 565.88.17 52.69-199.31-97.21-.17-52.69z" fill="#7c8ca7"/><path d="m318.53 371 200 97.54-69.74 32.75-39-18.67-78.82 37-59.46-29 44.61-20.95-35-17.05-44.62 20.94-66.93-32.64 45-21.11 48.48 23.65 51.41-24.14-48.46-23.69zm129.9 130.12 69.39-32.58-199.3-97.2-51.83 24.34 48.49 23.65-52.12 24.46-48.49-23.69-44.26 20.78 66.23 32.31 44.62-20.95 35.67 17.4-44.62 20.94 58.79 28.66 78.83-37 38.63 18.84" fill="#657288"/><path d="m409.79 482.58.17 52.68-78.82 37.01-.17-52.69z" fill="#4e5869"/><path d="m486.7 520.09.17 52.68-38.63-18.83-.17-52.69z" fill="#7c8ca7"/><path d="m330.97 519.58.17 52.69-29.14 13.68-.17-52.69z" fill="#4e5869"/><path d="m311.17 538.21.16 52.68-10.04-4.94-.17-52.69z" fill="#7c8ca7"/><path d="m487.41 520.09.17 52.69-78.83 37-.16-52.68z" fill="#4e5869"/><path d="m138.71 535.5.17 52.69-55.01 25.83-.17-52.69z" fill="#4e5869"/><g fill="#7c8ca7"><path d="m83.7 561.33.17 52.69-83.7-40.83-.17-52.68z"/><path d="m198.03 564.43.16 52.69-59.31-28.93-.17-52.69z"/><path d="m378.62 571.11.17 52.69-10.04-4.9-.17-52.68z"/><path d="m467.38 586.11.16 52.69-59.2-28.88-.16-52.68z"/><path d="m467.38 586.11.16 52.69-59.49-29.02-.17-52.69z"/></g><path d="m408.18 557.24.16 52.68-29.55 13.88-.17-52.69z" fill="#4e5869"/><path d="m311.87 538.21.17 52.69-85.04 39.92-.17-52.68z" fill="#4e5869"/><path d="m546.82 582.15.17 52.69-34.84-16.99-.16-52.69z" fill="#7c8ca7"/><path d="m546.82 582.15.17 52.69-34.84-16.99-.16-52.69z" fill="#7c8ca7"/><path d="m511.99 565.16.16 52.69-44.61 20.95-.16-52.69z" fill="#4e5869"/><path d="m198.74 564.43.17 52.69-55.02 25.83-.17-52.69z" fill="#4e5869"/><path d="m617.14 566.9.17 52.69-49.66 23.3-.16-52.69z" fill="#4e5869"/><path d="m665.64 590.56.17 52.69-48.5-23.66-.17-52.69z" fill="#7c8ca7"/><path d="m718.19 565.89.17 52.69-52.55 24.67-.17-52.69z" fill="#4e5869"/><path d="m254.65 592.05.17 52.69-28.53-13.92-.17-52.69z" fill="#7c8ca7"/><path d="m311.17 538.21-10.05-4.95 29.5-13.85.35.17-29.14 13.68 10.04 4.95-85.04 39.93 28.18 13.74-.36.17-28.53-13.92z" fill="#657288"/><path d="m255.01 591.88.17 52.69-.36.17-.16-52.69z" fill="#4e5869"/><path d="m546.82 582.15.17 52.69-44.61 20.94-.17-52.68z" fill="#4e5869"/><path d="m547.53 582.16.17 52.69-44.62 20.94-.16-52.68z" fill="#4e5869"/><path d="m283.54 606.14.17 52.69-28.54-13.92-.16-52.69z" fill="#7c8ca7"/><path d="m368.58 566.22.17 52.68-85.04 39.93-.17-52.69z" fill="#4e5869"/><path d="m615.28 613.86.17 52.69-48.51-23.66-.17-52.69z" fill="#7c8ca7"/><path d="m143.72 590.26 56.28 27.45-56.99-27.45 55.02-25.83-59.32-28.93-55.01 25.83-83.7-40.82 169.61-79.63-168.9 79.63 83 40.48 55.01-25.83 60.02 29.27z" fill="#657288"/><path d="m200 617.71.17 52.69-56.99-27.45-.17-52.69z" fill="#7c8ca7"/><path d="m255.01 592.22.16 52.69-54.65 25.66-.17-52.69z" fill="#4e5869"/><path d="m568.91 635.63.17 52.69-66.7-32.53-.17-52.69z" fill="#7c8ca7"/><path d="m615.99 613.86.16 52.69-46.73 21.94-.17-52.69z" fill="#4e5869"/><path d="m718.19 565.89-52.55 24.67-48.5-23.66-49.65 23.31 48.5 23.65-46.74 21.94-67.04-32.7 44.61-20.95-34.83-16.99-44.61 20.95-59.5-29.02 78.82-37-38.63-18.84 39.34 18.84-78.82 37.01 58.79 28.67 44.61-20.94 35.54 17.33-44.62 20.95 66.35 32.35 46.02-21.6-48.51-23.66 50.39-23.63 48.49 23.65 51.83-24.34-199.31-97.21z" fill="#657288"/><path d="m569.25 635.8.17 52.69-67.04-32.71-.17-52.68z" fill="#7c8ca7"/><path d="m311.6 619.82.16 52.69-55.01 25.83-.17-52.69z" fill="#4e5869"/><path d="m256.58 645.65.17 52.69-56.59-27.6-.17-52.69z" fill="#7c8ca7"/><path d="m370.93 648.76.17 52.69-59.34-28.94-.16-52.69z" fill="#7c8ca7"/><path d="m371.63 648.76.17 52.69-55.01 25.82-.17-52.68z" fill="#4e5869"/><path d="m399.64 715.43.17 52.68-83.73-40.84-.17-52.68z" fill="#7c8ca7"/><path d="m546.82 582.15-44.61 20.95 67.04 32.7-169.61 79.63-83.73-40.84 55.02-25.83-59.33-28.94-55.02 25.83-56.59-27.6 55.02-26.17 28.54 13.92 85.04-39.93 10.04 4.9 29.55-13.87 59.2 29.21-59.2-28.87-29.56 13.87-10.04-4.89-85.04 39.92-28.53-13.92-54.66 25.66 56.25 27.43 55.01-25.82 60.02 29.27-55.01 25.83 83.04 40.5 169.25-79.46-66.7-32.53 44.61-20.95-34.83-16.99z" fill="#657288"/><path d="m569.25 635.8.17 52.69-169.61 79.62-.17-52.68z" fill="#4e5869"/></g><g clip-path="url(#o)" opacity=".5"><path d="m399.82 768.11 169.43-79.54v-53.03l-67.04-32.49 44.98-21.08-35.19-17.15-44.57 20.93-59.23-28.86-29.54 13.86-10.06-4.89-85.04 39.93-28.53-13.91-55.02 26.16.15 52.67 56.61 27.62 59.33 28.94z" fill="#b4dc78"/></g><g clip-path="url(#p)"><path d="m318.82 0 399.3 194.75-318.19 149.37-399.29-194.75z" fill="#5b677a"/><path d="m718.12 194.75.01 2.64-318.19 149.36-.01-2.63z" fill="#515c6d"/><path d="m399.93 344.12.01 2.63-399.29-194.74-.01-2.64z" fill="#8394b1"/></g></g></g></svg>