<svg width="24" height="25" viewBox="0 0 24 25" xmlns="http://www.w3.org/2000/svg">
    <defs>
        <filter id="a">
            <feColorMatrix in="SourceGraphic" values="0 0 0 0 0.847000 0 0 0 0 0.847000 0 0 0 0 0.847000 0 0 0 1.000000 0"/>
        </filter>
    </defs>
    <g transform="translate(0 .31)" filter="url(#a)" fill="none" fill-rule="evenodd">
        <path d="M5 2a1 1 0 0 1 1 1v18a1 1 0 0 1-1 1H1a1 1 0 0 1-1-1V3a1 1 0 0 1 1-1zM4 4H2v16h2V4zm14.707 2.293 5 5a.999.999 0 0 1 0 1.414l-5 5-1.414-1.414L20.586 13H8v-2h12.586l-3.293-3.293 1.414-1.414z" fill="#371A2E"/>
    </g>
</svg>
